<svg width="103" height="66" viewBox="0 0 103 66" fill="none" xmlns="http://www.w3.org/2000/svg">
<g clip-path="url(#clip0)">
<path d="M71.9186 11.2026C70.7099 9.20526 69.1558 7.46842 67.0837 5.90526C65.1843 4.42895 63.1122 3.12632 60.7811 2.08421C58.9681 1.30263 56.8096 0.434211 53.8742 0.173684C53.5288 0.0868421 53.0971 0 52.6655 0H51.2841C47.3989 0.173684 44.2044 1.73684 41.9597 4.51579C41.6143 4.95 41.269 5.47105 40.9236 6.07895C39.4559 8.68421 38.5925 11.55 38.5062 14.5026C36.0888 13.2 33.4986 12.1579 30.9085 11.55C28.4048 10.8553 26.0737 10.5947 23.9153 10.5947C22.8792 10.5947 21.8432 10.6816 20.9798 10.8553C19.3394 11.1158 17.8717 11.6368 16.8356 12.3316C15.5406 13.2 14.6772 14.2421 14.3318 15.6316C14.2455 16.0658 14.1592 16.5868 14.1592 17.0211C14.1592 18.3237 14.5909 19.5395 14.9362 20.4079C15.4542 21.6237 16.1449 22.6658 17.181 23.7947C18.735 25.6184 20.7208 27.3553 23.2246 29.0053C25.383 30.3947 27.7141 31.6974 30.4769 32.9132C33.2396 34.0421 36.0024 34.9105 39.0242 35.5184C41.0963 35.9526 43.4274 36.2132 45.4132 36.2132C46.5355 36.2132 47.6579 36.1263 48.7803 35.9526C48.8666 35.9526 49.0393 35.8658 49.1256 35.8658C49.212 35.8658 49.3847 35.8658 49.471 35.9526L49.73 36.0395L50.0753 36.1263H50.3344C50.4207 36.2132 50.5934 36.2132 50.6797 36.2132H51.0251C51.3704 36.2132 51.8021 36.3 52.1474 36.3C52.3201 36.3 52.5791 36.3 52.7518 36.3C53.4425 36.2132 54.1332 36.1263 54.9102 35.9526C56.896 35.4316 58.6227 34.5632 60.2631 33.7816C60.8675 33.5211 61.3855 33.2605 61.9899 33C62.1625 32.9132 62.3352 32.8263 62.5942 32.7395L62.8532 32.5658C62.9396 32.4789 63.1122 32.4789 63.1986 32.3921C63.3712 32.3053 63.5439 32.2184 63.7166 32.1316L63.8893 32.0447L64.0619 31.8711C64.4936 31.6974 64.839 31.4368 65.2707 31.1763C68.7241 29.0053 71.1416 26.4 72.6093 23.3605C73.2137 22.0579 73.6453 20.7553 73.7317 19.3658C73.7317 18.9316 73.818 18.5842 73.818 18.15C73.9907 15.7184 73.3 13.3737 71.9186 11.2026ZM53.7015 35.2579C53.6152 35.2579 53.6152 35.2579 53.5288 35.2579C54.2195 34.9974 54.9102 34.65 55.5146 34.3026L55.9463 34.0421C56.896 33.5211 58.0184 32.9132 59.0544 32.1316C59.5724 32.2184 60.2631 32.3053 60.9538 32.3053C60.6948 32.3921 60.4358 32.5658 60.2631 32.6526C59.3134 33.0868 58.45 33.5211 57.5003 33.9553C56.4643 34.4763 55.1692 34.9105 53.7015 35.2579ZM50.766 35.1711C50.5934 35.1711 50.248 35.0842 49.989 34.9974C48.7803 34.7368 47.7443 34.2158 46.6219 33.6079L46.3629 33.5211C46.2765 33.4342 46.1038 33.4342 45.8448 33.2605L45.7585 33.3474L45.8448 33.2605L45.5858 33.0868V33C45.5858 33 45.4995 32.8263 45.4995 32.6526C45.4995 32.4789 45.4995 32.3053 45.4995 32.2184C45.5858 31.6105 45.6722 31.0026 45.8448 30.3947L46.0175 29.8737C46.2765 28.8316 46.5355 27.9632 46.7945 27.0947C50.5934 29.5263 53.9605 31.0026 57.5867 31.8711C56.8096 32.479 55.7736 33.0868 54.5649 33.6947C53.7878 34.1289 52.8381 34.65 51.8021 34.9974L51.5431 35.0842C51.2841 35.0842 51.0251 35.1711 50.766 35.1711ZM38.5062 15.5447C38.5062 15.8921 38.5062 16.3263 38.5062 16.5868C38.5062 16.6737 38.5062 16.8474 38.5062 16.9342V17.1079C38.5062 17.2816 38.5062 17.6289 38.5925 17.8895C38.5925 18.0632 38.5925 18.15 38.6789 18.3237C37.5565 17.6289 36.0888 16.7605 34.362 16.0658C32.2899 15.2842 30.4769 14.85 28.4911 14.6763C28.1458 14.6763 27.7141 14.6763 27.3687 14.6763C25.2966 14.6763 23.6562 15.1105 22.5339 15.9789C21.6705 16.6737 21.2388 17.5421 21.2388 18.4974V18.5842C21.2388 19.8 21.6705 20.6684 22.1022 21.3632C23.2246 23.2737 25.124 25.0105 27.8004 26.5737C30.3042 28.05 32.808 29.1789 35.3981 29.7868C36.9521 30.1342 38.7652 30.5684 40.8373 30.5684C41.0963 30.5684 41.4417 30.5684 41.7007 30.5684C41.787 30.5684 41.787 30.6553 41.8733 30.8289C42.7367 32.0447 43.9454 32.9132 44.9815 33.6947C45.0678 33.7816 45.1541 33.7816 45.4132 33.9553L45.9312 34.2158C46.2765 34.3895 46.7082 34.65 47.1399 34.7368C46.2765 34.9105 45.3268 34.9105 44.2908 34.9105C42.9957 34.9105 41.6143 34.8237 40.2329 34.65C37.9882 34.3026 35.8298 33.7816 33.7577 33.0868C29.7862 31.6974 26.0737 29.8737 23.1382 27.7026C21.2388 26.3132 18.8214 24.3158 17.2673 21.6237C16.6629 20.6684 16.3176 19.7132 16.1449 18.7579C16.0586 18.3237 16.0586 17.9763 16.0586 17.5421C16.0586 15.1105 17.5263 13.8079 18.3033 13.2C19.5984 12.2447 21.2388 11.7237 23.4836 11.4632C24.0879 11.3763 24.6059 11.3763 25.2103 11.3763C27.3687 11.3763 29.7862 11.7237 32.3763 12.5921C34.5347 13.2 36.6068 14.1553 38.6789 15.1974L38.5062 15.5447ZM39.7149 16.9342C39.7149 14.5895 39.9739 12.5921 40.3193 11.1158C40.4919 10.5947 40.6646 10.0737 40.9236 9.63947C41.6143 11.55 42.9957 13.0263 44.1181 14.1553C45.3268 15.3711 46.7082 16.5 48.4349 17.7158C47.3126 19.8868 46.3629 22.3184 45.6722 24.8368C45.4995 24.75 45.4132 24.6632 45.2405 24.4895L44.9815 24.3158C43.0821 22.9263 41.787 21.6237 40.751 20.2342C40.3193 19.7132 40.0603 19.1921 39.8013 18.5842C39.7149 18.4105 39.6286 18.2368 39.6286 18.0632C39.6286 17.8895 39.6286 17.7158 39.6286 17.5421C39.6286 17.4553 39.6286 17.2816 39.6286 17.1947L39.7149 16.9342ZM52.1474 1.12895C53.0971 1.12895 54.2195 1.21579 54.9966 1.38947C56.0326 1.56316 56.896 2.25789 57.2413 2.69211C57.7593 3.21316 58.191 3.90789 58.6227 4.95C58.9681 5.81842 59.2271 6.68684 59.3134 7.46842C59.2271 7.46842 59.2271 7.38158 59.2271 7.38158C59.2271 7.20789 59.1407 7.12105 59.1407 7.03421C58.7954 6.25263 58.191 5.64474 57.673 5.12368C57.0686 4.51579 56.3779 3.99474 55.6873 3.64737C54.3059 2.86579 52.4928 2.43158 50.5934 2.43158C50.4207 2.43158 50.248 2.43158 50.0753 2.43158C47.0536 2.60526 44.5498 3.64737 42.6504 5.64474C43.4274 4.60263 44.3771 3.64737 45.5858 2.95263C47.3126 1.91053 49.2983 1.30263 51.6294 1.21579C51.8021 1.12895 51.9748 1.12895 52.1474 1.12895ZM63.1986 4.34211C63.5439 4.51579 63.8893 4.77632 64.2346 4.95C63.3712 5.29737 62.6805 5.81842 62.1625 6.33947C61.6445 6.86053 61.1265 7.38158 60.6948 7.90263L60.5221 8.16316L60.1768 7.98947H60.0904C59.9178 5.38421 59.2271 3.47368 58.0183 2.25789C59.6587 2.60526 61.3855 3.38684 63.1986 4.34211ZM41.7007 8.33684C41.787 8.16316 41.8733 8.07632 41.9597 7.90263V7.81579L42.046 7.90263C43.6864 5.5579 46.0175 4.08158 48.8666 3.56053C49.471 3.47368 50.248 3.38684 50.9387 3.38684C51.8021 3.38684 52.5791 3.47368 53.2698 3.64737C54.8239 3.99474 56.1189 4.68947 57.155 5.81842C57.5867 6.25263 57.932 6.68684 58.3637 7.12105C58.3637 7.20789 58.45 7.2079 58.45 7.2079C57.673 7.29474 57.155 7.64211 56.5506 8.07632C55.0829 9.11842 53.8742 10.4211 52.9245 11.4632C51.4567 13.2 50.1617 15.0237 49.2983 16.8474C47.0536 15.1974 44.8088 13.4605 43.0821 11.0289C42.6504 10.5079 42.305 9.81316 41.9597 9.11842C41.8733 8.85789 41.7007 8.51053 41.7007 8.33684ZM64.6663 23.9684C59.8314 22.8395 55.5146 20.8421 50.5934 17.8026C52.3201 14.6763 54.3059 11.9842 56.3779 9.9C56.7233 9.55263 57.155 9.11842 57.5867 8.77105C58.0183 8.42369 58.45 8.07632 58.9681 7.98947C58.9681 7.98947 59.0544 7.98947 59.1407 7.98947H59.3134C59.3997 7.98947 59.4861 8.07632 59.5724 8.16316L59.7451 8.33684C60.2631 8.68421 60.7811 8.94474 61.2992 9.20526C61.5582 9.29211 61.8172 9.37895 61.9899 9.37895C62.1625 9.46579 62.3352 9.46579 62.5079 9.55263C62.9396 9.72632 63.2849 9.81316 63.5439 9.98684C64.58 10.5947 65.357 11.8974 65.7887 13.8079C66.0477 14.9368 66.134 16.1526 66.134 17.2816C66.134 18.0632 66.0477 18.8447 65.9613 19.4526C65.7887 21.1026 65.1843 22.6658 64.6663 23.9684ZM58.6227 31.0895C54.7375 30.1342 51.0251 28.4842 47.0536 26.0526C47.9169 23.4474 48.8666 21.1026 49.989 19.0184C53.4425 21.1895 58.1047 23.8816 63.8893 25.3579C63.6303 25.7921 63.3712 26.2263 62.9396 26.7474C61.7308 28.4842 60.2631 29.8737 58.6227 31.0895ZM67.6881 8.94474C66.5657 8.51053 65.1843 8.33684 63.8893 8.33684C63.0259 8.33684 62.3352 8.42368 61.6445 8.59737L61.2992 8.42368C62.0762 7.72895 62.8532 6.94737 63.8893 6.33947C64.3209 6.07895 64.7526 5.90526 65.1843 5.90526C65.357 5.90526 65.5297 5.90526 65.7023 5.99211C65.875 6.07895 66.0477 6.25263 66.3067 6.42632L66.4794 6.6C68.0334 7.81579 69.4148 9.20526 70.5372 10.5947C69.6738 9.9 68.7241 9.29211 67.6881 8.94474ZM44.6361 25.7053L44.8951 25.8789C45.0678 25.9658 45.2405 26.0526 45.3268 26.1395C45.0678 27.0079 44.8951 27.9632 44.7225 28.8316C44.7225 28.8316 44.6361 29.5263 44.5498 29.7868C44.4634 30.3947 44.2908 31.0026 44.2908 31.6105C44.2908 31.6974 44.2908 31.7842 44.2908 31.9579C43.7728 31.4368 43.1684 30.8289 42.6504 30.1342C42.046 29.3526 41.6143 28.4842 41.1826 27.5289C40.8373 26.5737 40.5783 25.5316 40.4056 24.2289C40.2329 23.2737 40.1466 22.2316 40.0603 21.1895C41.3553 22.8395 42.823 24.3158 44.6361 25.7053ZM37.1248 26.4C36.7795 26.4 36.3478 26.4 35.9161 26.3132C34.621 26.1395 33.4123 25.7921 32.2036 25.2711C31.0812 24.75 30.0452 24.1421 29.2681 23.4474C28.8365 23.1 28.4048 22.6658 28.1458 22.2316C27.8867 21.8842 27.5414 21.2763 27.4551 20.5816V20.4079C27.4551 19.4526 27.9731 18.8447 29.1818 18.4105C29.6135 18.3237 30.0452 18.2368 30.5632 18.2368C31.2539 18.2368 32.0309 18.3237 32.7216 18.5842C33.7577 18.8447 34.7074 19.3658 35.4844 19.9737C35.8298 20.2342 36.2614 20.5816 36.5204 20.9289C36.8658 21.3632 36.9521 21.7974 36.9521 22.2316V22.4053C36.8658 23.0132 36.5204 23.4474 35.9161 23.6211C35.6571 23.7079 35.3981 23.7079 35.1391 23.7079C34.1894 23.7079 33.2396 23.3605 32.6353 23.0132C32.2899 22.8395 32.0309 22.5789 31.8583 22.4921C31.6856 22.2316 31.5129 22.0579 31.5129 21.6237V21.45C31.5129 21.1895 31.5992 21.1026 31.7719 20.7553V20.6684L31.6856 20.5816C31.5992 20.4947 31.4266 20.3211 31.3402 20.2342L31.2539 20.1474C31.1676 20.0605 30.9949 19.8868 30.6495 19.8868C30.2178 19.8868 29.7862 20.2342 29.6998 20.5816C29.6998 20.6684 29.6998 20.7553 29.6998 20.8421C29.6998 21.3632 29.9588 21.7974 30.1315 22.0579C30.3905 22.4053 30.7359 22.6658 31.0812 22.9263C31.6856 23.3605 32.5489 23.8816 33.326 24.1421C34.362 24.4895 35.3117 24.75 36.2614 24.75C37.3838 24.75 38.1609 24.5763 38.5925 24.0553C38.8515 23.7947 39.0242 23.3605 39.0242 22.9263C39.0242 22.1447 38.5925 21.5368 38.2472 21.1026C37.9018 20.6684 37.4701 20.2342 36.9521 19.8868C36.0888 19.1921 34.9664 18.5842 33.7577 18.15C33.1533 17.8895 32.4626 17.7158 31.8583 17.5421C31.1676 17.3684 30.3905 17.2816 29.6998 17.2816C28.6638 17.2816 26.7644 17.4553 26.0737 18.7579C25.901 19.0184 25.901 19.3658 25.901 19.6263C25.901 20.4947 26.419 21.3632 26.5917 21.7105C27.5414 23.1868 29.1818 24.4895 31.3402 25.5316C32.7216 26.2263 34.103 26.7474 35.4844 27.0079C36.5204 27.2684 37.5565 27.3553 38.4199 27.3553C39.1106 27.3553 39.8013 27.2684 40.3193 27.0947C40.5783 28.1368 41.01 29.0053 41.3553 29.5263C40.8373 29.6132 40.4056 29.6132 39.8876 29.6132C37.8155 29.6132 35.6571 29.1789 33.4123 28.3974C31.0812 27.6158 29.0091 26.4868 27.1961 25.0974C26.16 24.3158 25.383 23.6211 24.7786 22.8395C24.0879 22.0579 23.3972 21.0158 23.3109 19.7132C23.3109 19.5395 23.3109 19.4526 23.3109 19.2789C23.3109 18.2368 23.7426 17.5421 24.2606 16.9342C24.865 16.4132 25.5557 16.0658 26.3327 15.8921C26.5917 15.8053 26.937 15.7184 27.2824 15.7184C27.7141 15.6316 28.1458 15.6316 28.6638 15.6316C29.6135 15.6316 30.7359 15.8053 31.7719 15.9789C33.6713 16.4132 35.3981 17.1079 37.0385 18.0632C37.9018 18.5842 38.5925 19.1053 39.1106 19.5395C39.1969 20.2342 39.2832 21.0158 39.3696 21.7105C39.5422 23.1 39.7149 24.5763 40.0603 25.7921C39.1106 26.2263 38.1608 26.4 37.1248 26.4ZM65.616 25.5316C66.393 25.6184 67.2564 25.7053 68.0334 25.7053C68.8105 25.7053 69.8465 25.6184 70.6236 25.1842C69.5875 26.6605 68.2061 27.9632 66.393 29.3526C65.616 29.9605 64.6663 30.5684 63.7166 31.0026C63.1986 31.2632 62.5079 31.35 61.6445 31.35C61.2128 31.35 60.7811 31.35 60.3494 31.2632C62.6805 29.5263 64.4073 27.6158 65.616 25.5316ZM71.7459 23.2737C71.2279 23.9684 70.0192 24.4026 68.2061 24.4026C67.5154 24.4026 66.8247 24.3158 66.2204 24.1421C66.7384 22.9263 67.6881 20.4079 67.6881 17.4553C67.6881 16.6737 67.6018 15.8921 67.5154 15.0237C67.2564 13.4605 66.652 11.9842 65.9613 10.9421C65.2707 9.98684 64.4073 9.29211 63.3712 9.03158C63.5439 9.03158 63.6303 9.03158 63.8029 9.03158C65.357 9.03158 66.8247 9.37895 68.0334 9.9C70.0192 10.8553 71.6596 12.6789 72.6093 15.1974C72.782 15.5447 72.9546 15.9789 72.9546 16.4132C73.041 16.9342 73.041 17.4553 73.041 17.9763C73.041 19.6263 72.6093 21.1026 72.1776 22.3184C72.0913 22.7526 71.9186 23.0132 71.7459 23.2737L71.8323 23.3605L71.7459 23.2737ZM17.0083 64.8711V62.6132C17.0083 62.5263 17.0083 62.0053 17.0083 61.6579L15.9722 64.8711H15.4542L14.4182 61.6579C14.4182 62.0053 14.4182 62.5263 14.4182 62.6132V64.8711H13.9002V61.05H14.6772L15.7132 64.2632L16.7493 61.05H17.44V64.8711H17.0083ZM19.3394 64.9579C18.476 64.9579 18.0443 64.1763 18.0443 63.4816C18.0443 62.7868 18.476 62.0053 19.3394 62.0053C20.2028 62.0053 20.6344 62.7868 20.6344 63.4816C20.6344 64.1763 20.2028 64.9579 19.3394 64.9579ZM19.3394 62.4395C18.6487 62.4395 18.5624 63.1342 18.5624 63.4816C18.5624 63.8289 18.735 64.5237 19.3394 64.5237C20.0301 64.5237 20.1164 63.8289 20.1164 63.4816C20.2028 63.1342 20.0301 62.4395 19.3394 62.4395ZM22.2748 64.9579C21.4978 64.9579 21.0661 64.35 21.0661 63.5684C21.0661 62.7 21.4978 62.0053 22.3612 62.0053C23.0519 62.0053 23.3109 62.5263 23.3972 63.0474H22.9655C22.8792 62.7 22.7065 62.4395 22.2748 62.4395C21.6705 62.4395 21.4978 62.9605 21.4978 63.4816C21.4978 63.9158 21.5842 64.5237 22.2748 64.5237C22.6202 64.5237 22.8792 64.2632 22.9655 63.8289H23.3109C23.3109 64.35 23.0519 64.9579 22.2748 64.9579ZM25.5557 64.8711L24.6923 63.4816L24.2606 63.8289V64.8711H23.8289V62.0921H24.2606V63.3079L25.4693 62.0921H26.0737L25.0376 63.1342L26.16 64.8711H25.5557ZM27.4551 64.9579C26.5917 64.9579 26.16 64.1763 26.16 63.4816C26.16 62.7868 26.5917 62.0053 27.4551 62.0053C28.3184 62.0053 28.7501 62.7868 28.7501 63.4816C28.7501 64.1763 28.3184 64.9579 27.4551 64.9579ZM27.4551 62.4395C26.7644 62.4395 26.678 63.1342 26.678 63.4816C26.678 63.8289 26.8507 64.5237 27.4551 64.5237C28.1458 64.5237 28.2321 63.8289 28.2321 63.4816C28.2321 63.1342 28.1458 62.4395 27.4551 62.4395ZM30.5632 64.8711H29.2681V62.0921H30.4769C31.0812 62.0921 31.3402 62.4395 31.3402 62.7868C31.3402 63.1342 31.0812 63.3079 30.9085 63.3947C31.1676 63.4816 31.5129 63.6553 31.5129 64.0895C31.5992 64.6105 31.1676 64.8711 30.5632 64.8711ZM30.3905 62.5263H29.6998V63.3079H30.3905C30.8222 63.3079 30.9085 63.2211 30.9085 62.8737C30.9085 62.6132 30.8222 62.5263 30.3905 62.5263ZM30.4769 63.6553H29.6998V64.5237H30.5632C30.9085 64.5237 31.0812 64.4368 31.0812 64.0895C31.0812 63.7421 30.9085 63.6553 30.4769 63.6553ZM33.1533 64.9579C32.3763 64.9579 31.9446 64.35 31.9446 63.5684C31.9446 62.7 32.3763 62.0053 33.2396 62.0053C33.9303 62.0053 34.2757 62.5263 34.2757 63.0474H33.844C33.7577 62.7 33.585 62.4395 33.1533 62.4395C32.5489 62.4395 32.3763 62.9605 32.3763 63.4816C32.3763 63.9158 32.4626 64.5237 33.1533 64.5237C33.4987 64.5237 33.7577 64.2632 33.844 63.8289H34.2757C34.1894 64.35 33.9303 64.9579 33.1533 64.9579ZM36.4341 64.8711L35.5707 63.4816L35.1391 63.8289V64.8711H34.7074V62.0921H35.1391V63.3079L36.3478 62.0921H36.9521L35.9161 63.1342L37.0385 64.8711H36.4341ZM39.5422 64.9579C39.1106 64.9579 39.1106 64.7842 39.0242 64.5237C38.8515 64.6974 38.5925 64.9579 38.0745 64.9579C37.5565 64.9579 37.2111 64.6105 37.2111 64.1763C37.2111 63.8289 37.2975 63.3947 38.2472 63.3079C38.9379 63.2211 39.0242 63.2211 39.0242 62.8737C39.0242 62.5263 38.8515 62.4395 38.4199 62.4395C37.9018 62.4395 37.8155 62.7868 37.8155 62.9605H37.3838C37.3838 62.2658 37.8155 62.0053 38.5062 62.0053C38.7652 62.0053 39.5422 62.0921 39.5422 62.7868V64.35C39.5422 64.4368 39.6286 64.5237 39.7149 64.5237C39.7149 64.5237 39.8013 64.5237 39.8876 64.5237V64.8711C39.7149 64.8711 39.6286 64.9579 39.5422 64.9579ZM39.0242 63.4816C38.9379 63.5684 38.8515 63.5684 38.2472 63.6553C37.9882 63.6553 37.6428 63.7421 37.6428 64.0895C37.6428 64.35 37.8155 64.6105 38.1609 64.6105C38.5925 64.6105 39.0242 64.35 39.0242 64.0026V63.4816ZM41.8733 64.8711V63.7421H41.269L40.5783 64.8711H40.0603L40.751 63.6553C40.4919 63.5684 40.1466 63.3079 40.1466 62.8737C40.1466 62.3526 40.4919 62.0921 41.0963 62.0921H42.305V64.8711H41.8733ZM41.8733 62.5263H41.1826C40.8373 62.5263 40.6646 62.7 40.6646 62.9605C40.6646 63.2211 40.8373 63.3947 41.1826 63.3947H41.8733V62.5263ZM44.4634 64.8711V62.0921H44.8951V64.4368H46.0175V62.0921H46.4492V64.4368H47.5716V62.0921H48.0033V64.8711H44.4634ZM50.5934 64.8711L49.73 63.4816L49.2983 63.8289V64.8711H48.8666V62.0921H49.2983V63.3079L50.507 62.0921H51.1114L50.0753 63.1342L51.1977 64.8711H50.5934ZM52.4928 64.9579C51.6294 64.9579 51.1977 64.1763 51.1977 63.4816C51.1977 62.7868 51.6294 62.0053 52.4928 62.0053C53.3562 62.0053 53.7878 62.7868 53.7878 63.4816C53.7878 64.1763 53.3562 64.9579 52.4928 64.9579ZM52.4928 62.4395C51.8021 62.4395 51.7158 63.1342 51.7158 63.4816C51.7158 63.8289 51.8884 64.5237 52.4928 64.5237C53.0971 64.5237 53.2698 63.8289 53.2698 63.4816C53.2698 63.1342 53.1835 62.4395 52.4928 62.4395ZM56.0326 64.8711V62.5263H54.9102V63.8289C54.9102 64.6974 54.6512 64.9579 54.2195 64.9579C54.1332 64.9579 53.9605 64.9579 53.9605 64.9579V64.6105C53.9605 64.6105 54.0469 64.6105 54.1332 64.6105C54.3922 64.6105 54.4785 64.5237 54.4785 63.6553V62.1789H56.4643V64.9579H56.0326V64.8711ZM59.3134 64.9579C58.8817 64.9579 58.8817 64.7842 58.7954 64.5237C58.6227 64.6974 58.3637 64.9579 57.8457 64.9579C57.3277 64.9579 56.9823 64.6105 56.9823 64.1763C56.9823 63.8289 57.0686 63.3947 58.0183 63.3079C58.709 63.2211 58.7954 63.2211 58.7954 62.8737C58.7954 62.5263 58.6227 62.4395 58.191 62.4395C57.673 62.4395 57.5867 62.7868 57.5867 62.9605H57.155C57.155 62.2658 57.5867 62.0053 58.2774 62.0053C58.5364 62.0053 59.3134 62.0921 59.3134 62.7868V64.35C59.3134 64.4368 59.3997 64.5237 59.4861 64.5237C59.4861 64.5237 59.5724 64.5237 59.6588 64.5237V64.8711C59.4861 64.8711 59.3997 64.9579 59.3134 64.9579ZM58.7954 63.4816C58.709 63.5684 58.6227 63.5684 58.0183 63.6553C57.7593 63.6553 57.414 63.7421 57.414 64.0895C57.414 64.35 57.5867 64.6105 57.932 64.6105C58.3637 64.6105 58.7954 64.35 58.7954 64.0026V63.4816ZM62.5079 65.3921C62.3352 65.8263 62.1625 66 61.6445 66C61.5582 66 61.5582 66 61.4718 66V65.5658C61.5582 65.5658 61.6445 65.6526 61.7308 65.6526C61.9898 65.6526 61.9898 65.5658 62.2489 65.0447L61.2128 62.1789H61.7308L62.4215 64.4368L63.1122 62.1789H63.6302C63.3712 63.0474 62.9396 64.5237 62.5079 65.3921ZM65.875 64.8711V62.5263H64.58V64.8711H64.1483V62.0921H66.393V64.8711H65.875ZM68.2061 64.9579C67.8608 64.9579 67.6018 64.7842 67.4291 64.5237V66H66.9974V62.1789H67.4291V62.5263C67.6018 62.2658 67.7744 62.0921 68.2924 62.0921C68.9831 62.0921 69.4148 62.7 69.4148 63.4816C69.4148 64.0895 69.1558 64.9579 68.2061 64.9579ZM68.2061 62.4395C67.5154 62.4395 67.4291 63.1342 67.4291 63.4816C67.4291 64.0895 67.6881 64.5237 68.2061 64.5237C68.4651 64.5237 68.8968 64.35 68.8968 63.5684C68.8968 63.1342 68.8968 62.4395 68.2061 62.4395ZM72.0913 64.9579C71.6596 64.9579 71.6596 64.7842 71.5733 64.5237C71.4006 64.6974 71.1416 64.9579 70.5372 64.9579C70.0192 64.9579 69.6738 64.6105 69.6738 64.1763C69.6738 63.8289 69.7602 63.3947 70.7099 63.3079C71.4006 63.2211 71.4869 63.2211 71.4869 62.8737C71.4869 62.5263 71.3142 62.4395 70.8826 62.4395C70.3645 62.4395 70.2782 62.7868 70.2782 62.9605H69.9329C69.9329 62.2658 70.3645 62.0053 71.0552 62.0053C71.3142 62.0053 72.0913 62.0921 72.0913 62.7868V64.35C72.0913 64.4368 72.1776 64.5237 72.2639 64.5237C72.2639 64.5237 72.3503 64.5237 72.4366 64.5237V64.8711C72.264 64.8711 72.2639 64.9579 72.0913 64.9579ZM71.5733 63.4816C71.4869 63.5684 71.4006 63.5684 70.7962 63.6553C70.5372 63.6553 70.1919 63.7421 70.1919 64.0895C70.1919 64.35 70.3645 64.6105 70.7099 64.6105C71.1416 64.6105 71.5733 64.35 71.5733 64.0026V63.4816ZM74.1634 64.8711H72.8683V62.0921H74.077C74.6814 62.0921 74.9404 62.4395 74.9404 62.7868C74.9404 63.1342 74.6814 63.3079 74.5087 63.3947C74.7677 63.4816 75.1131 63.6553 75.1131 64.0895C75.1131 64.6105 74.7677 64.8711 74.1634 64.8711ZM73.9907 62.5263H73.3V63.3079H73.9907C74.4224 63.3079 74.5087 63.2211 74.5087 62.8737C74.5087 62.6132 74.4224 62.5263 73.9907 62.5263ZM74.077 63.6553H73.3V64.5237H74.1634C74.5087 64.5237 74.6814 64.4368 74.6814 64.0895C74.6814 63.7421 74.4224 63.6553 74.077 63.6553ZM77.5305 64.8711V62.5263H76.4081V63.8289C76.4081 64.6974 76.1491 64.9579 75.7174 64.9579C75.6311 64.9579 75.4584 64.9579 75.4584 64.9579V64.6105C75.4584 64.6105 75.5448 64.6105 75.6311 64.6105C75.8901 64.6105 75.9764 64.5237 75.9764 63.6553V62.1789H77.9622V64.9579H77.5305V64.8711ZM78.9982 63.6553C78.9982 64.2632 79.2572 64.5237 79.7753 64.5237C80.2069 64.5237 80.466 64.1763 80.466 64.0026H80.8976C80.8113 64.4368 80.466 64.9579 79.6889 64.9579C78.9119 64.9579 78.4802 64.35 78.4802 63.5684C78.4802 62.7 78.9119 62.0053 79.7753 62.0053C80.5523 62.0053 80.984 62.6132 80.984 63.6553H78.9982ZM79.7753 62.4395C79.3436 62.4395 78.9982 62.8737 78.9982 63.3079H80.5523C80.466 62.8737 80.2933 62.4395 79.7753 62.4395ZM83.2287 64.8711V63.5684H81.9337V64.8711H81.502V62.0921H81.9337V63.2211H83.2287V62.0921H83.7468V64.8711H83.2287ZM86.2505 64.8711V62.7868L84.8691 64.8711H84.3511V62.0921H84.7828V64.1763L86.1642 62.0921H86.6822V64.8711H86.2505ZM88.927 64.8711V63.7421H88.3226L87.6319 64.8711H87.2002L87.8909 63.6553C87.6319 63.5684 87.2866 63.3079 87.2866 62.8737C87.2866 62.3526 87.6319 62.0921 88.3226 62.0921H89.5313V64.8711H88.927ZM88.927 62.5263H88.2363C87.8909 62.5263 87.7183 62.7 87.7183 62.9605C87.7183 63.2211 87.8909 63.3947 88.2363 63.3947H88.927V62.5263ZM9.84233 48.8921C9.3243 46.5474 7.42489 46.1132 6.12984 46.1132C3.7124 46.1132 1.81299 47.85 1.81299 51.4105C1.81299 54.5368 2.93537 56.9684 6.12984 56.9684C7.25222 56.9684 9.3243 56.4474 9.92866 53.3211H11.6554C10.9647 58.3579 6.90687 58.5316 5.87082 58.5316C2.84903 58.5316 -0.0864258 56.5342 -0.0864258 51.4974C-0.0864258 47.4158 2.24467 44.6368 6.0435 44.6368C9.41064 44.6368 11.2237 46.7211 11.4827 48.979H9.84233V48.8921ZM15.5406 51.3237L21.9295 44.8974H24.3469L18.9077 50.2816L24.5196 58.1842H22.1885L17.6127 51.4974L15.5406 53.5816V58.1842H13.8138V44.8974H15.5406V51.3237ZM31.3402 58.5316C26.419 58.5316 24.9513 54.45 24.9513 51.5842C24.9513 48.7184 26.419 44.6368 31.3402 44.6368C36.2614 44.6368 37.7292 48.7184 37.7292 51.5842C37.8155 54.45 36.2614 58.5316 31.3402 58.5316ZM31.3402 46.2C28.4911 46.2 26.7644 48.4579 26.7644 51.5842C26.7644 54.7105 28.4911 56.9684 31.3402 56.9684C34.1893 56.9684 35.9161 54.7105 35.9161 51.5842C35.9161 48.4579 34.2757 46.2 31.3402 46.2ZM49.5573 44.8974V58.1842H47.7443V46.5474H42.7367V52.1053C42.7367 57.229 41.4417 58.5316 39.6286 58.5316C39.2832 58.5316 38.8515 58.4447 38.4199 58.3579V56.8816C38.5925 56.8816 38.8515 56.9684 39.2832 56.9684C40.6646 56.9684 41.01 55.2316 41.01 51.5842V44.9842H49.5573V44.8974ZM54.0468 51.3237L60.4358 44.8974H62.8532L57.3277 50.2816L63.0259 58.1842H60.6948L56.1189 51.5842L54.0468 53.5816V58.1842H52.2338V44.8974H54.0468V51.3237ZM69.8465 58.5316C64.9253 58.5316 63.4576 54.45 63.4576 51.5842C63.4576 48.7184 64.9253 44.6368 69.8465 44.6368C74.7677 44.6368 76.2355 48.7184 76.2355 51.5842C76.2355 54.45 74.7677 58.5316 69.8465 58.5316ZM69.8465 46.2C66.9974 46.2 65.2707 48.4579 65.2707 51.5842C65.2707 54.7105 66.9974 56.9684 69.8465 56.9684C72.6956 56.9684 74.4224 54.7105 74.4224 51.5842C74.4224 48.4579 72.6956 46.2 69.8465 46.2ZM78.3939 44.8974H84.1785C86.6822 44.8974 87.8909 46.4605 87.8909 48.1974C87.8909 49.0658 87.5456 50.2816 86.1642 50.9763C87.0276 51.3237 88.5816 51.9316 88.5816 54.1895C88.5816 56.3605 87.0276 58.0974 84.0921 58.0974H78.3939V44.8974ZM80.2069 50.5421H83.4014C85.1282 50.5421 86.1642 50.0211 86.1642 48.3711C86.1642 47.1553 85.3872 46.4605 83.4014 46.4605H80.2069V50.5421ZM80.2069 56.6211H84.0058C85.8189 56.6211 86.7686 55.6658 86.7686 54.1895C86.7686 52.3658 85.1282 51.9316 83.6604 51.9316H80.1206V56.6211H80.2069ZM96.611 58.5316C91.6898 58.5316 90.222 54.45 90.222 51.5842C90.222 48.7184 91.6898 44.6368 96.611 44.6368C101.532 44.6368 103 48.7184 103 51.5842C103 54.45 101.532 58.5316 96.611 58.5316ZM96.611 46.2C93.7619 46.2 92.0351 48.4579 92.0351 51.5842C92.0351 54.7105 93.7619 56.9684 96.611 56.9684C99.4601 56.9684 101.187 54.7105 101.187 51.5842C101.187 48.4579 99.4601 46.2 96.611 46.2Z" fill="white"/>
</g>
<defs>
<clipPath id="clip0">
<rect width="103" height="66" fill="white"/>
</clipPath>
</defs>
</svg>
