<svg width="209" height="134" viewBox="0 0 209 134" fill="none" xmlns="http://www.w3.org/2000/svg">
<path d="M145.933 22.7447C143.48 18.6895 140.327 15.1632 136.122 11.9895C132.268 8.99211 128.064 6.34737 123.334 4.23158C119.655 2.64474 115.275 0.881579 109.319 0.352632C108.618 0.176316 107.742 0 106.866 0H104.063C96.1794 0.352632 89.6974 3.52632 85.1425 9.16842C84.4418 10.05 83.741 11.1079 83.0403 12.3421C80.062 17.6316 78.3102 23.45 78.135 29.4447C73.2297 26.8 67.974 24.6842 62.7184 23.45C57.6379 22.0395 52.9078 21.5105 48.5281 21.5105C46.4258 21.5105 44.3236 21.6868 42.5717 22.0395C39.2431 22.5684 36.2649 23.6263 34.1626 25.0368C31.5348 26.8 29.7829 28.9158 29.0822 31.7368C28.907 32.6184 28.7318 33.6763 28.7318 34.5579C28.7318 37.2026 29.6077 39.6711 30.3085 41.4342C31.3596 43.9026 32.7611 46.0184 34.8634 48.3105C38.0168 52.0132 42.0461 55.5395 47.1266 58.8895C51.5063 61.7105 56.2364 64.3553 61.8424 66.8237C67.4485 69.1158 73.0545 70.8789 79.1861 72.1132C83.3906 72.9947 88.1207 73.5237 92.1501 73.5237C94.4275 73.5237 96.705 73.3474 98.9824 72.9947C99.1576 72.9947 99.508 72.8184 99.6832 72.8184C99.8584 72.8184 100.209 72.8184 100.384 72.9947L100.909 73.1711L101.61 73.3474H102.136C102.311 73.5237 102.661 73.5237 102.837 73.5237H103.537C104.238 73.5237 105.114 73.7 105.815 73.7C106.165 73.7 106.691 73.7 107.041 73.7C108.443 73.5237 109.844 73.3474 111.421 72.9947C115.45 71.9368 118.954 70.1737 122.283 68.5868C123.509 68.0579 124.56 67.5289 125.786 67C126.137 66.8237 126.487 66.6474 127.013 66.4711L127.538 66.1184C127.713 65.9421 128.064 65.9421 128.239 65.7658C128.589 65.5895 128.94 65.4132 129.29 65.2368L129.64 65.0605L129.991 64.7079C130.867 64.3553 131.567 63.8263 132.443 63.2974C139.451 58.8895 144.356 53.6 147.334 47.4289C148.561 44.7842 149.437 42.1395 149.612 39.3184C149.612 38.4368 149.787 37.7316 149.787 36.85C150.137 31.9132 148.736 27.1526 145.933 22.7447ZM108.968 71.5842C108.793 71.5842 108.793 71.5842 108.618 71.5842C110.019 71.0553 111.421 70.35 112.647 69.6447L113.523 69.1158C115.45 68.0579 117.728 66.8237 119.83 65.2368C120.881 65.4132 122.282 65.5895 123.684 65.5895C123.158 65.7658 122.633 66.1184 122.283 66.2947C120.355 67.1763 118.604 68.0579 116.676 68.9395C114.574 69.9974 111.946 70.8789 108.968 71.5842ZM103.012 71.4079C102.661 71.4079 101.961 71.2316 101.435 71.0553C98.9824 70.5263 96.8801 69.4684 94.6027 68.2342L94.0771 68.0579C93.9019 67.8816 93.5516 67.8816 93.026 67.5289L92.8508 67.7053L93.026 67.5289L92.5004 67.1763V67C92.5004 67 92.3252 66.6474 92.3252 66.2947C92.3252 65.9421 92.3252 65.5895 92.3252 65.4132C92.5004 64.1789 92.6756 62.9447 93.026 61.7105L93.3764 60.6526C93.9019 58.5368 94.4275 56.7737 94.9531 55.0105C102.661 59.9474 109.494 62.9447 116.852 64.7079C115.275 65.9421 113.173 67.1763 110.72 68.4105C109.143 69.2921 107.216 70.35 105.114 71.0553L104.588 71.2316C104.063 71.2316 103.537 71.4079 103.012 71.4079ZM78.135 31.5605C78.135 32.2658 78.135 33.1474 78.135 33.6763C78.135 33.8526 78.135 34.2053 78.135 34.3816V34.7342C78.135 35.0868 78.135 35.7921 78.3102 36.3211C78.3102 36.6737 78.3102 36.85 78.4854 37.2026C76.2079 35.7921 73.2297 34.0289 69.7259 32.6184C65.5214 31.0316 61.8424 30.15 57.8131 29.7974C57.1123 29.7974 56.2364 29.7974 55.5357 29.7974C51.3311 29.7974 48.0025 30.6789 45.7251 32.4421C43.9732 33.8526 43.0973 35.6158 43.0973 37.5553V37.7316C43.0973 40.2 43.9732 41.9632 44.8491 43.3737C47.1266 47.2526 50.9807 50.7789 56.4116 53.9526C61.4921 56.95 66.5725 59.2421 71.8282 60.4763C74.9816 61.1816 78.6605 62.0632 82.8651 62.0632C83.3906 62.0632 84.0914 62.0632 84.617 62.0632C84.7921 62.0632 84.7921 62.2395 84.9673 62.5921C86.7192 65.0605 89.1719 66.8237 91.2741 68.4105C91.4493 68.5868 91.6245 68.5868 92.1501 68.9395L93.2012 69.4684C93.9019 69.8211 94.7779 70.35 95.6538 70.5263C93.9019 70.8789 91.9749 70.8789 89.8726 70.8789C87.2448 70.8789 84.4418 70.7026 81.6387 70.35C77.0838 69.6447 72.7041 68.5868 68.4996 67.1763C60.4409 64.3553 52.9078 60.6526 46.9514 56.2447C43.0973 53.4237 38.192 49.3684 35.0386 43.9026C33.8123 41.9632 33.1115 40.0237 32.7611 38.0842C32.5859 37.2026 32.5859 36.4974 32.5859 35.6158C32.5859 30.6789 35.5642 28.0342 37.1409 26.8C39.7687 24.8605 43.0973 23.8026 47.6522 23.2737C48.8785 23.0974 49.9296 23.0974 51.1559 23.0974C55.5357 23.0974 60.4409 23.8026 65.6966 25.5658C70.0763 26.8 74.2808 28.7395 78.4854 30.8553L78.135 31.5605ZM80.5876 34.3816C80.5876 29.6211 81.1132 25.5658 81.8139 22.5684C82.1643 21.5105 82.5147 20.4526 83.0403 19.5711C84.4418 23.45 87.2448 26.4474 89.5222 28.7395C91.9749 31.2079 94.7779 33.5 98.2817 35.9684C96.0042 40.3763 94.0771 45.3132 92.6756 50.4263C92.3252 50.25 92.1501 50.0737 91.7997 49.7211L91.2741 49.3684C87.42 46.5474 84.7921 43.9026 82.6899 41.0816C81.8139 40.0237 81.2884 38.9658 80.7628 37.7316C80.5876 37.3789 80.4124 37.0263 80.4124 36.6737C80.4124 36.321 80.4124 35.9684 80.4124 35.6158C80.4124 35.4395 80.4124 35.0868 80.4124 34.9105L80.5876 34.3816ZM105.815 2.29211C107.742 2.29211 110.019 2.46842 111.596 2.82105C113.698 3.17368 115.45 4.58421 116.151 5.46579C117.202 6.52368 118.078 7.93421 118.954 10.05C119.655 11.8132 120.18 13.5763 120.355 15.1632C120.18 15.1632 120.18 14.9868 120.18 14.9868C120.18 14.6342 120.005 14.4579 120.005 14.2816C119.304 12.6947 118.078 11.4605 117.027 10.4026C115.801 9.16842 114.399 8.11053 112.998 7.40526C110.194 5.81842 106.516 4.93684 102.661 4.93684C102.311 4.93684 101.961 4.93684 101.61 4.93684C95.4786 5.28947 90.3982 7.40526 86.544 11.4605C88.1207 9.34474 90.0478 7.40526 92.5004 5.99474C96.0042 3.87895 100.034 2.64474 104.764 2.46842C105.114 2.29211 105.464 2.29211 105.815 2.29211ZM128.239 8.81579C128.94 9.16842 129.64 9.69737 130.341 10.05C128.589 10.7553 127.188 11.8132 126.137 12.8711C125.086 13.9289 124.034 14.9868 123.158 16.0447L122.808 16.5737L122.107 16.2211H121.932C121.582 10.9316 120.18 7.05263 117.728 4.58421C121.056 5.28947 124.56 6.87632 128.239 8.81579ZM84.617 16.9263C84.7921 16.5737 84.9673 16.3974 85.1425 16.0447V15.8684L85.3177 16.0447C88.6463 11.2842 93.3764 8.28684 99.1576 7.22895C100.384 7.05263 101.961 6.87632 103.362 6.87632C105.114 6.87632 106.691 7.05263 108.092 7.40526C111.246 8.11053 113.873 9.52105 115.976 11.8132C116.852 12.6947 117.552 13.5763 118.428 14.4579C118.428 14.6342 118.604 14.6342 118.604 14.6342C117.027 14.8105 115.976 15.5158 114.749 16.3974C111.771 18.5132 109.319 21.1579 107.391 23.2737C104.413 26.8 101.785 30.5026 100.034 34.2053C95.4786 30.8553 90.9237 27.3289 87.42 22.3921C86.544 21.3342 85.8433 19.9237 85.1425 18.5132C84.9673 17.9842 84.617 17.2789 84.617 16.9263ZM131.217 48.6632C121.407 46.3711 112.647 42.3158 102.661 36.1447C106.165 29.7974 110.194 24.3316 114.399 20.1C115.1 19.3947 115.976 18.5132 116.852 17.8079C117.728 17.1026 118.604 16.3974 119.655 16.2211C119.655 16.2211 119.83 16.2211 120.005 16.2211H120.355C120.531 16.2211 120.706 16.3974 120.881 16.5737L121.231 16.9263C122.282 17.6316 123.334 18.1605 124.385 18.6895C124.91 18.8658 125.436 19.0421 125.786 19.0421C126.137 19.2184 126.487 19.2184 126.837 19.3947C127.713 19.7474 128.414 19.9237 128.94 20.2763C131.042 21.5105 132.619 24.1553 133.495 28.0342C134.02 30.3263 134.195 32.7947 134.195 35.0868C134.195 36.6737 134.02 38.2605 133.845 39.4947C133.495 42.8447 132.268 46.0184 131.217 48.6632ZM118.954 63.121C111.07 61.1816 103.537 57.8316 95.4786 52.8947C97.2305 47.6053 99.1576 42.8447 101.435 38.6132C108.443 43.021 117.903 48.4868 129.64 51.4842C129.115 52.3658 128.589 53.2474 127.713 54.3053C125.261 57.8316 122.283 60.6526 118.954 63.121ZM137.349 18.1605C135.071 17.2789 132.268 16.9263 129.64 16.9263C127.889 16.9263 126.487 17.1026 125.086 17.4553L124.385 17.1026C125.961 15.6921 127.538 14.1053 129.64 12.8711C130.516 12.3421 131.392 11.9895 132.268 11.9895C132.619 11.9895 132.969 11.9895 133.319 12.1658C133.67 12.3421 134.02 12.6947 134.546 13.0474L134.896 13.4C138.049 15.8684 140.852 18.6895 143.13 21.5105C141.378 20.1 139.451 18.8658 137.349 18.1605ZM90.5734 52.1895L91.0989 52.5421C91.4493 52.7184 91.7997 52.8947 91.9749 53.0711C91.4493 54.8342 91.0989 56.7737 90.7486 58.5368C90.7486 58.5368 90.5734 59.9474 90.3982 60.4763C90.223 61.7105 89.8726 62.9447 89.8726 64.1789C89.8726 64.3553 89.8726 64.5316 89.8726 64.8842C88.8215 63.8263 87.5952 62.5921 86.544 61.1816C85.3177 59.5947 84.4418 57.8316 83.5658 55.8921C82.8651 53.9526 82.3395 51.8368 81.9891 49.1921C81.6387 47.2526 81.4636 45.1368 81.2884 43.021C83.9162 46.3711 86.8944 49.3684 90.5734 52.1895ZM75.332 53.6C74.6312 53.6 73.7553 53.6 72.8793 53.4237C70.2515 53.071 67.7989 52.3658 65.3462 51.3079C63.0688 50.25 60.9665 49.0158 59.3898 47.6053C58.5139 46.9 57.6379 46.0184 57.1123 45.1368C56.5868 44.4316 55.886 43.1974 55.7108 41.7868V41.4342C55.7108 39.4947 56.762 38.2605 59.2146 37.3789C60.0905 37.2026 60.9665 37.0263 62.0176 37.0263C63.4191 37.0263 64.9958 37.2026 66.3973 37.7316C68.4996 38.2605 70.4267 39.3184 72.0034 40.5526C72.7041 41.0816 73.5801 41.7868 74.1056 42.4921C74.8064 43.3737 74.9816 44.2553 74.9816 45.1368V45.4895C74.8064 46.7237 74.1056 47.6053 72.8793 47.9579C72.3538 48.1342 71.8282 48.1342 71.3026 48.1342C69.3755 48.1342 67.4485 47.4289 66.2222 46.7237C65.5214 46.3711 64.9958 45.8421 64.6455 45.6658C64.2951 45.1368 63.9447 44.7842 63.9447 43.9026V43.55C63.9447 43.0211 64.1199 42.8447 64.4703 42.1395V41.9632L64.2951 41.7868C64.1199 41.6105 63.7695 41.2579 63.5943 41.0816L63.4191 40.9053C63.2439 40.7289 62.8936 40.3763 62.1928 40.3763C61.3169 40.3763 60.4409 41.0816 60.2657 41.7868C60.2657 41.9632 60.2657 42.1395 60.2657 42.3158C60.2657 43.3737 60.7913 44.2553 61.1417 44.7842C61.6673 45.4895 62.368 46.0184 63.0688 46.5474C64.2951 47.4289 66.047 48.4868 67.6237 49.0158C69.7259 49.7211 71.653 50.25 73.5801 50.25C75.8575 50.25 77.4342 49.8974 78.3102 48.8395C78.8357 48.3105 79.1861 47.4289 79.1861 46.5474C79.1861 44.9605 78.3102 43.7263 77.6094 42.8447C76.9087 41.9632 76.0327 41.0816 74.9816 40.3763C73.2297 38.9658 70.9522 37.7316 68.4996 36.85C67.2733 36.3211 65.8718 35.9684 64.6455 35.6158C63.2439 35.2632 61.6673 35.0868 60.2657 35.0868C58.1635 35.0868 54.3093 35.4395 52.9078 38.0842C52.5574 38.6132 52.5574 39.3184 52.5574 39.8474C52.5574 41.6105 53.6086 43.3737 53.959 44.0789C55.886 47.0763 59.2146 49.7211 63.5943 51.8368C66.3973 53.2474 69.2004 54.3053 72.0034 54.8342C74.1056 55.3632 76.2079 55.5395 77.9598 55.5395C79.3613 55.5395 80.7628 55.3632 81.8139 55.0105C82.3395 57.1263 83.2154 58.8895 83.9162 59.9474C82.8651 60.1237 81.9891 60.1237 80.938 60.1237C76.7335 60.1237 72.3538 59.2421 67.7989 57.6553C63.0688 56.0684 58.8642 53.7763 55.1853 50.9553C53.083 49.3684 51.5063 47.9579 50.28 46.3711C48.8785 44.7842 47.477 42.6684 47.3018 40.0237C47.3018 39.6711 47.3018 39.4947 47.3018 39.1421C47.3018 37.0263 48.1777 35.6158 49.2289 34.3816C50.4552 33.3237 51.8567 32.6184 53.4334 32.2658C53.959 32.0895 54.6597 31.9132 55.3605 31.9132C56.2364 31.7368 57.1123 31.7368 58.1635 31.7368C60.0906 31.7368 62.368 32.0895 64.4703 32.4421C68.3244 33.3237 71.8282 34.7342 75.1568 36.6737C76.9087 37.7316 78.3102 38.7895 79.3613 39.6711C79.5365 41.0816 79.7117 42.6684 79.8869 44.0789C80.2372 46.9 80.5876 49.8974 81.2884 52.3658C79.3613 53.2474 77.4342 53.6 75.332 53.6ZM133.144 51.8368C134.721 52.0132 136.473 52.1895 138.049 52.1895C139.626 52.1895 141.728 52.0132 143.305 51.1316C141.203 54.1289 138.4 56.7737 134.721 59.5947C133.144 60.8289 131.217 62.0632 129.29 62.9447C128.239 63.4737 126.837 63.65 125.086 63.65C124.21 63.65 123.334 63.65 122.458 63.4737C127.188 59.9474 130.692 56.0684 133.144 51.8368ZM145.583 47.2526C144.531 48.6632 142.079 49.5447 138.4 49.5447C136.998 49.5447 135.597 49.3684 134.37 49.0158C135.422 46.5474 137.349 41.4342 137.349 35.4395C137.349 33.8526 137.174 32.2658 136.998 30.5026C136.473 27.3289 135.246 24.3316 133.845 22.2158C132.443 20.2763 130.692 18.8658 128.589 18.3368C128.94 18.3368 129.115 18.3368 129.465 18.3368C132.619 18.3368 135.597 19.0421 138.049 20.1C142.079 22.0395 145.407 25.7421 147.334 30.8553C147.685 31.5605 148.035 32.4421 148.035 33.3237C148.21 34.3816 148.21 35.4395 148.21 36.4974C148.21 39.8474 147.334 42.8447 146.459 45.3132C146.283 46.1947 145.933 46.7237 145.583 47.2526L145.758 47.4289L145.583 47.2526ZM34.513 131.708V127.124C34.513 126.947 34.513 125.889 34.513 125.184L32.4108 131.708H31.3596L29.2574 125.184C29.2574 125.889 29.2574 126.947 29.2574 127.124V131.708H28.2062V123.95H29.7829L31.8852 130.474L33.9875 123.95H35.389V131.708H34.513ZM39.2431 131.884C37.4912 131.884 36.6153 130.297 36.6153 128.887C36.6153 127.476 37.4912 125.889 39.2431 125.889C40.995 125.889 41.8709 127.476 41.8709 128.887C41.8709 130.297 40.995 131.884 39.2431 131.884ZM39.2431 126.771C37.8416 126.771 37.6664 128.182 37.6664 128.887C37.6664 129.592 38.0168 131.003 39.2431 131.003C40.6446 131.003 40.8198 129.592 40.8198 128.887C40.995 128.182 40.6446 126.771 39.2431 126.771ZM45.1995 131.884C43.6228 131.884 42.7469 130.65 42.7469 129.063C42.7469 127.3 43.6228 125.889 45.3747 125.889C46.7762 125.889 47.3018 126.947 47.477 128.005H46.601C46.4258 127.3 46.0755 126.771 45.1995 126.771C43.9732 126.771 43.6228 127.829 43.6228 128.887C43.6228 129.768 43.798 131.003 45.1995 131.003C45.9003 131.003 46.4258 130.474 46.601 129.592H47.3018C47.3018 130.65 46.7762 131.884 45.1995 131.884ZM51.8567 131.708L50.1048 128.887L49.2289 129.592V131.708H48.3529V126.066H49.2289V128.534L51.6815 126.066H52.9078L50.8056 128.182L53.083 131.708H51.8567ZM55.7108 131.884C53.959 131.884 53.083 130.297 53.083 128.887C53.083 127.476 53.959 125.889 55.7108 125.889C57.4627 125.889 58.3387 127.476 58.3387 128.887C58.3387 130.297 57.4627 131.884 55.7108 131.884ZM55.7108 126.771C54.3093 126.771 54.1341 128.182 54.1341 128.887C54.1341 129.592 54.4845 131.003 55.7108 131.003C57.1123 131.003 57.2875 129.592 57.2875 128.887C57.2875 128.182 57.1123 126.771 55.7108 126.771ZM62.0176 131.708H59.3898V126.066H61.8424C63.0688 126.066 63.5943 126.771 63.5943 127.476C63.5943 128.182 63.0688 128.534 62.7184 128.711C63.2439 128.887 63.9447 129.239 63.9447 130.121C64.1199 131.179 63.2439 131.708 62.0176 131.708ZM61.6673 126.947H60.2657V128.534H61.6673C62.5432 128.534 62.7184 128.358 62.7184 127.653C62.7184 127.124 62.5432 126.947 61.6673 126.947ZM61.8424 129.239H60.2657V131.003H62.0176C62.7184 131.003 63.0688 130.826 63.0688 130.121C63.0688 129.416 62.7184 129.239 61.8424 129.239ZM67.2733 131.884C65.6966 131.884 64.8206 130.65 64.8206 129.063C64.8206 127.3 65.6966 125.889 67.4485 125.889C68.85 125.889 69.5507 126.947 69.5507 128.005H68.6748C68.4996 127.3 68.1492 126.771 67.2733 126.771C66.047 126.771 65.6966 127.829 65.6966 128.887C65.6966 129.768 65.8718 131.003 67.2733 131.003C67.974 131.003 68.4996 130.474 68.6748 129.592H69.5507C69.3755 130.65 68.85 131.884 67.2733 131.884ZM73.9305 131.708L72.1786 128.887L71.3026 129.592V131.708H70.4267V126.066H71.3026V128.534L73.7553 126.066H74.9816L72.8793 128.182L75.1568 131.708H73.9305ZM80.2372 131.884C79.3613 131.884 79.3613 131.532 79.1861 131.003C78.8357 131.355 78.3102 131.884 77.259 131.884C76.2079 131.884 75.5071 131.179 75.5071 130.297C75.5071 129.592 75.6823 128.711 77.6094 128.534C79.0109 128.358 79.1861 128.358 79.1861 127.653C79.1861 126.947 78.8357 126.771 77.9598 126.771C76.9087 126.771 76.7335 127.476 76.7335 127.829H75.8575C75.8575 126.418 76.7335 125.889 78.135 125.889C78.6605 125.889 80.2372 126.066 80.2372 127.476V130.65C80.2372 130.826 80.4124 131.003 80.5876 131.003C80.5876 131.003 80.7628 131.003 80.938 131.003V131.708C80.5876 131.708 80.4124 131.884 80.2372 131.884ZM79.1861 128.887C79.0109 129.063 78.8357 129.063 77.6094 129.239C77.0838 129.239 76.3831 129.416 76.3831 130.121C76.3831 130.65 76.7335 131.179 77.4342 131.179C78.3102 131.179 79.1861 130.65 79.1861 129.945V128.887ZM84.9673 131.708V129.416H83.741L82.3395 131.708H81.2884L82.6899 129.239C82.1643 129.063 81.4636 128.534 81.4636 127.653C81.4636 126.595 82.1643 126.066 83.3906 126.066H85.8433V131.708H84.9673ZM84.9673 126.947H83.5658C82.8651 126.947 82.5147 127.3 82.5147 127.829C82.5147 128.358 82.8651 128.711 83.5658 128.711H84.9673V126.947ZM90.223 131.708V126.066H91.0989V130.826H93.3764V126.066H94.2523V130.826H96.5298V126.066H97.4057V131.708H90.223ZM102.661 131.708L100.909 128.887L100.034 129.592V131.708H99.1576V126.066H100.034V128.534L102.486 126.066H103.713L101.61 128.182L103.888 131.708H102.661ZM106.516 131.884C104.764 131.884 103.888 130.297 103.888 128.887C103.888 127.476 104.764 125.889 106.516 125.889C108.267 125.889 109.143 127.476 109.143 128.887C109.143 130.297 108.267 131.884 106.516 131.884ZM106.516 126.771C105.114 126.771 104.939 128.182 104.939 128.887C104.939 129.592 105.289 131.003 106.516 131.003C107.742 131.003 108.092 129.592 108.092 128.887C108.092 128.182 107.917 126.771 106.516 126.771ZM113.698 131.708V126.947H111.421V129.592C111.421 131.355 110.895 131.884 110.019 131.884C109.844 131.884 109.494 131.884 109.494 131.884V131.179C109.494 131.179 109.669 131.179 109.844 131.179C110.37 131.179 110.545 131.003 110.545 129.239V126.242H114.574V131.884H113.698V131.708ZM120.355 131.884C119.479 131.884 119.479 131.532 119.304 131.003C118.954 131.355 118.428 131.884 117.377 131.884C116.326 131.884 115.625 131.179 115.625 130.297C115.625 129.592 115.801 128.711 117.728 128.534C119.129 128.358 119.304 128.358 119.304 127.653C119.304 126.947 118.954 126.771 118.078 126.771C117.027 126.771 116.852 127.476 116.852 127.829H115.976C115.976 126.418 116.852 125.889 118.253 125.889C118.779 125.889 120.355 126.066 120.355 127.476V130.65C120.355 130.826 120.531 131.003 120.706 131.003C120.706 131.003 120.881 131.003 121.056 131.003V131.708C120.706 131.708 120.531 131.884 120.355 131.884ZM119.304 128.887C119.129 129.063 118.954 129.063 117.728 129.239C117.202 129.239 116.501 129.416 116.501 130.121C116.501 130.65 116.852 131.179 117.552 131.179C118.428 131.179 119.304 130.65 119.304 129.945V128.887ZM126.837 132.766C126.487 133.647 126.137 134 125.086 134C124.91 134 124.91 134 124.735 134V133.118C124.91 133.118 125.086 133.295 125.261 133.295C125.786 133.295 125.786 133.118 126.312 132.061L124.21 126.242H125.261L126.662 130.826L128.064 126.242H129.115C128.589 128.005 127.713 131.003 126.837 132.766ZM133.67 131.708V126.947H131.042V131.708H130.166V126.066H134.721V131.708H133.67ZM138.4 131.884C137.699 131.884 137.174 131.532 136.823 131.003V134H135.947V126.242H136.823V126.947C137.174 126.418 137.524 126.066 138.575 126.066C139.977 126.066 140.852 127.3 140.852 128.887C140.852 130.121 140.327 131.884 138.4 131.884ZM138.4 126.771C136.998 126.771 136.823 128.182 136.823 128.887C136.823 130.121 137.349 131.003 138.4 131.003C138.925 131.003 139.801 130.65 139.801 129.063C139.801 128.182 139.801 126.771 138.4 126.771ZM146.283 131.884C145.407 131.884 145.407 131.532 145.232 131.003C144.882 131.355 144.356 131.884 143.13 131.884C142.079 131.884 141.378 131.179 141.378 130.297C141.378 129.592 141.553 128.711 143.48 128.534C144.882 128.358 145.057 128.358 145.057 127.653C145.057 126.947 144.707 126.771 143.831 126.771C142.78 126.771 142.604 127.476 142.604 127.829H141.904C141.904 126.418 142.78 125.889 144.181 125.889C144.707 125.889 146.283 126.066 146.283 127.476V130.65C146.283 130.826 146.459 131.003 146.634 131.003C146.634 131.003 146.809 131.003 146.984 131.003V131.708C146.634 131.708 146.634 131.884 146.283 131.884ZM145.232 128.887C145.057 129.063 144.882 129.063 143.656 129.239C143.13 129.239 142.429 129.416 142.429 130.121C142.429 130.65 142.78 131.179 143.48 131.179C144.356 131.179 145.232 130.65 145.232 129.945V128.887ZM150.488 131.708H147.86V126.066H150.313C151.539 126.066 152.065 126.771 152.065 127.476C152.065 128.182 151.539 128.534 151.189 128.711C151.714 128.887 152.415 129.239 152.415 130.121C152.415 131.179 151.714 131.708 150.488 131.708ZM150.137 126.947H148.736V128.534H150.137C151.013 128.534 151.189 128.358 151.189 127.653C151.189 127.124 151.013 126.947 150.137 126.947ZM150.313 129.239H148.736V131.003H150.488C151.189 131.003 151.539 130.826 151.539 130.121C151.539 129.416 151.013 129.239 150.313 129.239ZM157.32 131.708V126.947H155.043V129.592C155.043 131.355 154.517 131.884 153.641 131.884C153.466 131.884 153.116 131.884 153.116 131.884V131.179C153.116 131.179 153.291 131.179 153.466 131.179C153.992 131.179 154.167 131.003 154.167 129.239V126.242H158.196V131.884H157.32V131.708ZM160.298 129.239C160.298 130.474 160.824 131.003 161.875 131.003C162.751 131.003 163.277 130.297 163.277 129.945H164.153C163.977 130.826 163.277 131.884 161.7 131.884C160.123 131.884 159.247 130.65 159.247 129.063C159.247 127.3 160.123 125.889 161.875 125.889C163.452 125.889 164.328 127.124 164.328 129.239H160.298ZM161.875 126.771C160.999 126.771 160.298 127.653 160.298 128.534H163.452C163.277 127.653 162.926 126.771 161.875 126.771ZM168.883 131.708V129.063H166.255V131.708H165.379V126.066H166.255V128.358H168.883V126.066H169.934V131.708H168.883ZM175.014 131.708V127.476L172.211 131.708H171.16V126.066H172.036V130.297L174.839 126.066H175.89V131.708H175.014ZM180.445 131.708V129.416H179.219L177.817 131.708H176.941L178.343 129.239C177.817 129.063 177.117 128.534 177.117 127.653C177.117 126.595 177.817 126.066 179.219 126.066H181.671V131.708H180.445ZM180.445 126.947H179.044C178.343 126.947 177.992 127.3 177.992 127.829C177.992 128.358 178.343 128.711 179.044 128.711H180.445V126.947ZM19.9724 99.2658C18.9212 94.5053 15.0671 93.6237 12.4393 93.6237C7.53398 93.6237 3.67983 97.15 3.67983 104.379C3.67983 110.726 5.95728 115.663 12.4393 115.663C14.7167 115.663 18.9212 114.605 20.1476 108.258H23.6513C22.2498 118.484 14.016 118.837 11.9137 118.837C5.7821 118.837 -0.174316 114.782 -0.174316 104.555C-0.174316 96.2684 4.55577 90.6263 12.2641 90.6263C19.0964 90.6263 22.7754 94.8579 23.301 99.4421H19.9724V99.2658ZM31.5348 104.203L44.4988 91.1553H49.4041L38.3672 102.087L49.7544 118.132H45.0243L35.7393 104.555L31.5348 108.787V118.132H28.031V91.1553H31.5348V104.203ZM63.5943 118.837C53.6086 118.837 50.6304 110.55 50.6304 104.732C50.6304 98.9132 53.6086 90.6263 63.5943 90.6263C73.5801 90.6263 76.5583 98.9132 76.5583 104.732C76.7335 110.55 73.5801 118.837 63.5943 118.837ZM63.5943 93.8C57.8131 93.8 54.3093 98.3842 54.3093 104.732C54.3093 111.079 57.8131 115.663 63.5943 115.663C69.3755 115.663 72.8793 111.079 72.8793 104.732C72.8793 98.3842 69.5507 93.8 63.5943 93.8ZM100.559 91.1553V118.132H96.8801V94.5053H86.7192V105.789C86.7192 116.192 84.0914 118.837 80.4124 118.837C79.7117 118.837 78.8357 118.661 77.9598 118.484V115.487C78.3102 115.487 78.8357 115.663 79.7117 115.663C82.5147 115.663 83.2154 112.137 83.2154 104.732V91.3316H100.559V91.1553ZM109.669 104.203L122.633 91.1553H127.538L116.326 102.087L127.889 118.132H123.158L113.873 104.732L109.669 108.787V118.132H105.99V91.1553H109.669V104.203ZM141.728 118.837C131.743 118.837 128.764 110.55 128.764 104.732C128.764 98.9132 131.743 90.6263 141.728 90.6263C151.714 90.6263 154.692 98.9132 154.692 104.732C154.692 110.55 151.714 118.837 141.728 118.837ZM141.728 93.8C135.947 93.8 132.443 98.3842 132.443 104.732C132.443 111.079 135.947 115.663 141.728 115.663C147.51 115.663 151.013 111.079 151.013 104.732C151.013 98.3842 147.51 93.8 141.728 93.8ZM159.072 91.1553H170.81C175.89 91.1553 178.343 94.3289 178.343 97.8553C178.343 99.6184 177.642 102.087 174.839 103.497C176.591 104.203 179.744 105.437 179.744 110.021C179.744 114.429 176.591 117.955 170.635 117.955H159.072V91.1553ZM162.751 102.616H169.233C172.737 102.616 174.839 101.558 174.839 98.2079C174.839 95.7395 173.262 94.3289 169.233 94.3289H162.751V102.616ZM162.751 114.958H170.459C174.138 114.958 176.065 113.018 176.065 110.021C176.065 106.318 172.737 105.437 169.759 105.437H162.576V114.958H162.751ZM196.037 118.837C186.051 118.837 183.073 110.55 183.073 104.732C183.073 98.9132 186.051 90.6263 196.037 90.6263C206.023 90.6263 209.001 98.9132 209.001 104.732C209.001 110.55 206.023 118.837 196.037 118.837ZM196.037 93.8C190.256 93.8 186.752 98.3842 186.752 104.732C186.752 111.079 190.256 115.663 196.037 115.663C201.818 115.663 205.322 111.079 205.322 104.732C205.322 98.3842 201.818 93.8 196.037 93.8Z" fill="white"/>
</svg>
