<svg width="182" height="59" viewBox="0 0 182 59" fill="none" xmlns="http://www.w3.org/2000/svg">
<path d="M69.6608 14.9506C69.5638 12.2414 67.4298 11.4387 65.4898 11.4387C64.0348 11.4387 61.6098 11.84 61.6098 14.4489C61.6098 15.954 62.2888 16.3554 65.7808 17.1581C70.9217 18.3622 72.1827 19.4659 72.1827 22.3758C72.1827 26.4897 68.4968 27.5935 65.5868 27.5935C59.9609 27.5935 58.7969 24.0816 58.7969 21.573H60.9309C60.9309 24.6836 63.3558 25.5867 65.4898 25.5867C67.1388 25.5867 69.8547 25.1853 69.8547 22.6768C69.8547 20.8707 69.4667 20.2686 64.1318 19.0645C61.2218 18.4625 59.3789 17.4591 59.3789 14.6496C59.3789 11.9404 61.1248 9.33154 65.1018 9.33154C70.9217 9.33154 71.5037 12.9438 71.6007 14.8503L69.6608 14.9506Z" fill="#050340"/>
<path d="M76.7414 18.2618L84.8893 9.93359H87.9933L81.0093 16.9574L88.1873 27.2924H85.2773L79.4574 18.5628L76.8384 21.1717V27.2924H74.6074V9.93359H76.8384L76.7414 18.2618Z" fill="#050340"/>
<path d="M97.1118 27.6938C90.9039 27.6938 88.9639 22.3758 88.9639 18.5628C88.9639 14.7499 90.9039 9.43188 97.1118 9.43188C103.32 9.43188 105.26 14.7499 105.26 18.5628C105.26 22.3758 103.32 27.6938 97.1118 27.6938ZM97.1118 11.539C93.4258 11.539 91.2918 14.4489 91.2918 18.5628C91.2918 22.6768 93.4258 25.687 97.1118 25.687C100.798 25.687 102.932 22.7771 102.932 18.6632C102.932 14.5492 100.701 11.539 97.1118 11.539Z" fill="#050340"/>
<path d="M109.818 25.0849H118.257V27.1921H107.49V9.93359H109.721L109.818 25.0849Z" fill="#050340"/>
<path d="M122.137 18.2618L130.285 9.83325H133.389L126.405 16.8571L133.583 27.1921H130.673L124.853 18.4625L122.234 21.0713V27.1921H120.003V9.93359H122.234L122.137 18.2618Z" fill="#050340"/>
<path d="M142.507 27.6938C136.299 27.6938 134.359 22.3758 134.359 18.5628C134.359 14.7499 136.202 9.43188 142.507 9.43188C148.812 9.43188 150.655 14.7499 150.655 18.5628C150.655 22.3758 148.715 27.6938 142.507 27.6938ZM142.507 11.539C138.821 11.539 136.687 14.4489 136.687 18.5628C136.687 22.6768 138.821 25.687 142.507 25.687C146.193 25.687 148.327 22.7771 148.327 18.6632C148.327 14.5492 146.096 11.539 142.507 11.539Z" fill="#050340"/>
<path d="M162.682 9.93359H165.204L159.094 27.2924H156.669L150.558 9.93359H153.08L157.833 24.6836L162.682 9.93359Z" fill="#050340"/>
<path d="M173.353 27.6938C167.145 27.6938 165.205 22.3758 165.205 18.5628C165.205 14.7499 167.048 9.43188 173.353 9.43188C179.658 9.43188 181.501 14.7499 181.501 18.5628C181.501 22.3758 179.561 27.6938 173.353 27.6938ZM173.353 11.539C169.667 11.539 167.533 14.4489 167.533 18.5628C167.533 22.6768 169.667 25.687 173.353 25.687C177.039 25.687 179.173 22.7771 179.173 18.6632C179.173 14.5492 177.039 11.539 173.353 11.539Z" fill="#050340"/>
<path d="M50.4545 9.93367C49.3875 8.12755 48.0295 6.62245 46.2835 5.21769C44.6345 3.91327 42.7915 2.80952 40.8516 1.90646C39.2996 1.10374 37.3596 0.401361 34.8376 0.10034C34.5466 0.10034 34.1586 0 33.8676 0H32.7036C29.3087 0.20068 26.5927 1.5051 24.6527 4.01361C24.3617 4.41497 24.0707 4.81633 23.7797 5.41837C22.5188 7.72619 21.8398 10.335 21.6458 12.9439C19.5118 11.7398 17.2808 10.9371 15.0498 10.335C12.9159 9.73299 10.8789 9.43197 9.03591 9.43197C8.16292 9.43197 7.28993 9.53231 6.51393 9.63265C5.05895 9.83333 3.89496 10.335 2.92497 10.9371C1.76099 11.7398 1.08199 12.6429 0.790997 13.8469C0.5 14.2483 0.5 14.6497 0.5 15.051C0.5 16.1548 0.887996 17.2585 1.17899 18.0612C1.66399 19.165 2.24598 20.068 3.11897 21.0714C4.47696 22.6769 6.12594 24.182 8.25992 25.6871C10.1029 26.9915 12.1399 28.0952 14.5648 29.0986C16.8928 30.102 19.3178 30.9048 21.9368 31.4065C23.7797 31.8078 25.7197 32.0085 27.4657 32.0085C28.4357 32.0085 29.4057 31.9082 30.3757 31.8078C30.4727 31.8078 30.5697 31.8078 30.6667 31.8078C30.7637 31.8078 30.8607 31.8078 30.9577 31.9082L31.1517 32.0085L31.4427 32.1088H31.6367C31.7337 32.2092 31.8307 32.2092 31.9277 32.2092H32.2187C32.5097 32.2092 32.8976 32.2092 33.1886 32.2092C33.3826 32.2092 33.5766 32.2092 33.7706 32.2092C34.3526 32.2092 34.9346 32.0085 35.6136 31.9082C37.3596 31.4065 38.8146 30.7041 40.2696 30.0017C40.7546 29.801 41.2396 29.5 41.7246 29.2993C41.9185 29.199 42.0155 29.0986 42.2095 28.9983L42.4035 28.898C42.5005 28.898 42.5975 28.7976 42.6945 28.7976C42.8885 28.6973 42.9855 28.6973 43.1795 28.5969L43.3735 28.4966L43.5675 28.3963C43.8585 28.1956 44.2465 27.9949 44.6345 27.7942C47.6415 25.8878 49.6785 23.5799 51.0364 20.8707C51.6184 19.767 51.9094 18.5629 52.0064 17.3588C52.0064 17.0578 52.1034 16.6565 52.1034 16.3554C52.2004 13.9473 51.6184 11.9405 50.4545 9.93367ZM34.7406 31.3061H34.6436C35.2256 31.0051 35.8076 30.7041 36.3896 30.4031L36.7776 30.2024C37.5536 29.7007 38.5236 29.199 39.4936 28.4966C39.8816 28.5969 40.4636 28.6973 41.1426 28.6973C40.9486 28.7976 40.7546 28.898 40.5606 28.9983C39.7846 29.3997 39.0086 29.801 38.1356 30.102C37.0686 30.6037 36.0016 31.1054 34.7406 31.3061ZM32.2187 31.3061C32.0247 31.3061 31.8307 31.2058 31.5397 31.2058C30.4727 30.9048 29.5997 30.5034 28.6297 30.0017L28.4357 29.9014C28.3387 29.801 28.2417 29.801 27.9507 29.6003V29.7007V29.6003L27.7567 29.5L27.6597 29.2993C27.6597 29.2993 27.6597 29.0986 27.6597 28.9983C27.6597 28.898 27.6597 28.6973 27.6597 28.5969C27.7567 27.9949 27.8537 27.4932 27.9507 26.9915L28.0477 26.4898C28.2417 25.5867 28.4357 24.784 28.7267 23.9813C32.0247 26.1888 34.9346 27.4932 38.0386 28.1956C37.3596 28.6973 36.4866 29.199 35.4196 29.9014C34.7406 30.3027 33.9646 30.7041 33.0916 31.0051L32.8976 31.1054C32.6067 31.2058 32.4127 31.3061 32.2187 31.3061ZM21.6458 13.8469C21.6458 14.148 21.6458 14.5493 21.6458 14.8503C21.6458 14.9507 21.6458 15.051 21.6458 15.1514V15.352C21.6458 15.5527 21.6458 15.8537 21.6458 16.0544C21.6458 16.1548 21.6458 16.3554 21.6458 16.4558C20.6758 15.8537 19.4148 15.051 17.8628 14.449C16.1168 13.7466 14.4678 13.3452 12.8189 13.2449C12.5279 13.2449 12.1399 13.2449 11.8489 13.2449C10.1029 13.2449 8.64791 13.6463 7.67792 14.449C6.90193 15.051 6.61093 15.7534 6.61093 16.7568V16.8571C6.61093 17.8605 6.99893 18.6633 7.38692 19.3656C8.35691 21.0714 10.0059 22.5765 12.3339 23.9813C14.4678 25.2857 16.6018 26.2891 18.9298 26.8912C20.1908 27.1922 21.8398 27.5935 23.6827 27.5935C23.9737 27.5935 24.1677 27.5935 24.4587 27.5935C24.4587 27.5935 24.5557 27.6939 24.6527 27.8946C25.4287 28.898 26.4957 29.801 27.3687 30.4031C27.4657 30.5034 27.5627 30.5034 27.7567 30.6037L28.1447 30.8044C28.4357 31.0051 28.8237 31.1054 29.2117 31.3061C28.2417 31.1054 27.4657 31.1054 26.5927 31.1054C25.5257 31.1054 24.2647 31.0051 23.1008 30.8044C21.1608 30.5034 19.3178 30.0017 17.4748 29.3997C13.9829 28.1956 10.7819 26.4898 8.25992 24.5833C6.61093 23.2789 4.47696 21.5731 3.11897 19.165C2.63398 18.2619 2.34298 17.4592 2.14898 16.6565C2.05198 16.2551 2.05198 15.9541 2.05198 15.5527C2.05198 13.4456 3.31297 12.2415 3.99196 11.7398C5.15595 10.8367 6.51393 10.4354 8.45391 10.2347C8.93891 10.1344 9.4239 10.1344 9.9089 10.1344C11.7519 10.1344 13.7889 10.4354 16.1168 11.2381C17.9598 11.8401 19.8028 12.6429 21.5488 13.5459L21.6458 13.8469ZM22.6158 15.051C22.6158 12.9439 22.8098 11.2381 23.1978 9.93367C23.2948 9.43197 23.4887 9.03061 23.6827 8.62925C24.2647 10.335 25.4287 11.6395 26.4957 12.6429C27.4657 13.6463 28.7267 14.75 30.2787 15.8537C29.3087 17.7602 28.4357 19.8673 27.8537 22.1752C27.7567 22.0748 27.5627 21.9745 27.4657 21.8741L27.2717 21.6735C25.6227 20.4694 24.5557 19.2653 23.6827 18.0612C23.2948 17.5595 23.1008 17.0578 22.9068 16.5561C22.8098 16.3554 22.8098 16.2551 22.8098 16.1548C22.8098 16.0544 22.8098 15.8537 22.8098 15.6531C22.8098 15.5527 22.8098 15.4524 22.8098 15.352L22.6158 15.051ZM33.3826 1.0034C34.1586 1.0034 35.1286 1.10374 35.9046 1.20408C36.8746 1.40476 37.5536 2.0068 37.8446 2.30782C38.3296 2.80952 38.7176 3.41157 39.0086 4.31463C39.2996 5.11735 39.4936 5.81973 39.5906 6.52211C39.5906 6.52211 39.4936 6.52211 39.4936 6.42177C39.4936 6.32143 39.3966 6.22109 39.3966 6.12075C39.1056 5.41837 38.5236 4.91667 38.1356 4.41497C37.6506 3.91327 37.0686 3.41156 36.4866 3.11054C35.3226 2.40816 33.6736 2.0068 32.1217 2.0068C31.9277 2.0068 31.8307 2.0068 31.6367 2.0068C29.0177 2.10714 26.7867 3.11054 25.2347 4.81633C25.8167 4.01361 26.6897 3.21088 27.6597 2.5085C29.1147 1.60544 30.8607 1.10374 32.8976 1.0034C33.0916 1.0034 33.1886 1.0034 33.3826 1.0034ZM42.9855 3.81293C43.2765 4.01361 43.5675 4.21429 43.8585 4.31463C43.0825 4.61565 42.5005 5.11735 42.1125 5.51871C41.6276 6.02041 41.2396 6.52211 40.7546 7.02381L40.6576 7.22449L40.3666 7.02381H40.2696C40.0756 4.71599 39.4936 3.0102 38.4266 1.90646C39.8816 2.30782 41.3366 3.0102 42.9855 3.81293ZM24.3617 7.42517C24.4587 7.32483 24.4587 7.12415 24.6527 7.02381L24.5557 6.92347L24.6527 7.02381C26.1077 4.91667 28.0477 3.61225 30.5697 3.21088C31.0547 3.0102 31.7337 3.0102 32.3157 3.0102C33.0916 3.0102 33.7706 3.11054 34.3526 3.21088C35.7106 3.5119 36.7776 4.11395 37.7476 5.11735C38.1356 5.51871 38.4266 5.81973 38.7176 6.22109L38.8146 6.32143C38.1356 6.42177 37.6506 6.72279 37.1656 7.12415C35.9046 8.02721 34.8376 9.23129 34.0616 10.1344C32.8006 11.6395 31.6367 13.2449 30.8607 14.8503C28.9207 13.4456 26.9807 11.8401 25.5257 9.63265C25.1377 9.13095 24.8467 8.62925 24.5557 7.92687C24.4587 7.92687 24.3617 7.52551 24.3617 7.42517ZM44.2465 21.3724C40.0756 20.369 36.2926 18.6633 32.1217 15.8537C33.6736 13.0442 35.3226 10.7364 37.1656 8.82993C37.4566 8.52891 37.8446 8.12755 38.2326 7.82653C38.5236 7.52551 39.0086 7.22449 39.3966 7.12415C39.3966 7.12415 39.4936 7.12415 39.5906 7.12415H39.6876C39.6876 7.12415 39.7846 7.22449 39.8816 7.22449L40.0756 7.32483C40.5606 7.62585 41.0456 7.92687 41.4336 8.02721C41.6276 8.12755 41.8215 8.12755 42.0155 8.22789C42.2095 8.22789 42.3065 8.32823 42.4035 8.32823C42.7915 8.42857 43.0825 8.52891 43.3735 8.72959C44.2465 9.33163 44.9255 10.4354 45.3135 12.1412C45.5075 13.1446 45.6045 14.2483 45.6045 15.2517C45.6045 15.9541 45.5075 16.5561 45.4105 17.1582C45.1195 18.7636 44.6345 20.1684 44.2465 21.3724ZM39.0086 27.5935C35.6136 26.7908 32.4127 25.2857 29.0177 23.0782C29.6967 20.7704 30.5697 18.6633 31.5397 16.8571C34.4496 18.7636 38.5236 21.1718 43.5675 22.4762C43.3735 22.8776 43.0825 23.2789 42.6945 23.7806C41.6276 25.2857 40.3666 26.5901 39.0086 27.5935ZM46.7685 7.92687C45.7985 7.52551 44.6345 7.32483 43.4705 7.32483C42.7915 7.32483 42.1125 7.42517 41.5306 7.52551L41.2396 7.42517C41.9185 6.82313 42.5975 6.12075 43.4705 5.61905C43.8585 5.41837 44.1495 5.21769 44.5375 5.21769C44.7315 5.21769 44.8285 5.21769 44.9255 5.31803C45.1195 5.41837 45.2165 5.51871 45.4105 5.71939L45.6045 5.92007C46.9625 7.02381 48.1265 8.22789 49.0965 9.53231C48.5145 8.82993 47.7385 8.32823 46.7685 7.92687ZM26.8837 22.7772L27.0777 22.9779C27.1747 23.0782 27.3687 23.1786 27.4657 23.1786C27.2717 23.9813 27.0777 24.784 26.9807 25.5867C26.9807 25.5867 26.8837 26.1888 26.7867 26.4898C26.6897 27.0918 26.5927 27.5935 26.5927 28.0952C26.5927 28.1956 26.5927 28.2959 26.5927 28.3963C26.1077 27.9949 25.6227 27.3929 25.1377 26.7908C24.6527 26.0884 24.1677 25.2857 23.8767 24.483C23.5857 23.6803 23.3918 22.7772 23.1978 21.5731C23.1008 20.6701 23.0038 19.8673 22.9068 18.8639C24.0707 20.2687 25.3317 21.5731 26.8837 22.7772ZM20.3848 23.4796C20.0938 23.4796 19.7058 23.4796 19.4148 23.3793C18.3478 23.2789 17.2808 22.9779 16.2138 22.4762C15.2438 22.0748 14.3708 21.4728 13.6919 20.8707C13.3039 20.5697 13.0129 20.1684 12.7219 19.767C12.5279 19.466 12.1399 18.8639 12.1399 18.3622V18.1616C12.1399 17.3588 12.6249 16.7568 13.5949 16.3554C13.8859 16.2551 14.3708 16.1548 14.7588 16.1548C15.3408 16.1548 16.0198 16.2551 16.6018 16.4558C17.4748 16.7568 18.3478 17.1582 19.0268 17.6599C19.3178 17.8605 19.7058 18.1616 19.8998 18.5629C20.1908 18.9643 20.2878 19.3656 20.2878 19.767V19.8673C20.2878 20.369 19.8998 20.7704 19.4148 20.9711C19.1238 21.0714 18.8328 21.0714 18.6388 21.0714C17.8628 21.0714 16.9898 20.7704 16.4078 20.4694C16.1168 20.2687 15.8258 20.068 15.7288 19.9677C15.5348 19.767 15.4378 19.5663 15.4378 19.165V19.0646C15.4378 18.8639 15.5348 18.7636 15.6318 18.4626V18.3622C15.5348 18.2619 15.4378 18.1616 15.3408 18.0612L15.2438 17.9609C15.1468 17.8605 14.9528 17.7602 14.7588 17.6599C14.3708 17.6599 13.9829 17.9609 13.8859 18.2619C13.8859 18.3622 13.8859 18.4626 13.8859 18.5629C13.8859 18.9643 14.0799 19.3656 14.2738 19.5663C14.4678 19.8673 14.7588 20.068 15.0498 20.369C15.6318 20.7704 16.3108 21.1718 16.9898 21.4728C17.8628 21.7738 18.6388 21.9745 19.5118 21.9745C20.4818 21.9745 21.1608 21.7738 21.5488 21.3724C21.8398 21.0714 21.9368 20.7704 21.9368 20.369C21.9368 19.6667 21.5488 19.165 21.2578 18.7636C20.9668 18.3622 20.5788 18.0612 20.1908 17.6599C19.4148 17.0578 18.4448 16.5561 17.4748 16.1548C16.9898 15.9541 16.4078 15.7534 15.8258 15.6531C15.2438 15.5527 14.5648 15.4524 13.8859 15.4524C13.0129 15.4524 11.3639 15.6531 10.6849 16.7568C10.5879 17.0578 10.4909 17.2585 10.4909 17.5595C10.4909 18.3622 10.9759 19.165 11.0729 19.3656C11.9459 20.6701 13.3039 21.7738 15.1468 22.7772C16.4078 23.3793 17.5718 23.881 18.7358 24.0816C19.6088 24.2823 20.4818 24.3827 21.2578 24.3827C21.8398 24.3827 22.4218 24.2823 22.9068 24.0816C23.1008 24.9847 23.4887 25.7874 23.7797 26.2891C23.3918 26.2891 22.9068 26.3895 22.5188 26.3895C20.7728 26.3895 18.9298 25.9881 16.8928 25.2857C14.9528 24.5833 13.0129 23.5799 11.5579 22.3759C10.6849 21.6735 10.0059 21.0714 9.4239 20.369C8.84191 19.6667 8.25992 18.7636 8.16292 17.5595C8.16292 17.4592 8.16292 17.3588 8.16292 17.1582C8.16292 16.2551 8.55091 15.5527 9.03591 15.1514C9.5209 14.6497 10.1999 14.3486 10.7819 14.148C11.0729 14.0476 11.2669 14.0476 11.5579 13.9473C11.9459 13.8469 12.3339 13.8469 12.7219 13.8469C13.5949 13.8469 14.4678 13.9473 15.3408 14.148C16.9898 14.5493 18.5418 15.1514 19.8998 16.0544C20.6758 16.5561 21.2578 16.9575 21.6458 17.3588C21.7428 17.9609 21.8398 18.6633 21.9368 19.2653C22.1308 20.4694 22.2278 21.7738 22.5188 22.8776C22.1308 23.2789 21.3548 23.4796 20.3848 23.4796ZM45.0225 22.6769C45.7015 22.7772 46.4775 22.8776 47.0595 22.8776C47.7385 22.8776 48.6115 22.7772 49.2905 22.4762C48.4175 23.7806 47.2535 24.9847 45.6045 26.1888C44.9255 26.6905 44.1495 27.2925 43.2765 27.6939C42.7915 27.8946 42.2095 27.9949 41.4336 27.9949C41.0456 27.9949 40.6576 27.9949 40.2696 27.8946C42.4035 26.1888 43.9555 24.5833 45.0225 22.6769ZM50.3575 20.6701C49.9695 21.2721 48.9025 21.6735 47.3505 21.6735C46.7685 21.6735 46.0895 21.5731 45.6045 21.4728C46.0895 20.4694 46.8655 18.1616 46.8655 15.5527C46.8655 14.8503 46.7685 14.148 46.6715 13.4456C46.3805 12.0408 45.9925 10.7364 45.3135 9.83333C44.7315 8.93027 43.9555 8.42857 43.0825 8.12755C43.1795 8.12755 43.3735 8.12755 43.4705 8.12755C44.8285 8.12755 46.0895 8.42857 47.1565 8.93027C48.9025 9.73299 50.2605 11.4388 51.1334 13.6463C51.2304 13.9473 51.4244 14.3486 51.4244 14.75C51.5214 15.2517 51.5214 15.6531 51.5214 16.1548C51.5214 17.5595 51.2304 18.9643 50.7455 19.9677C50.5515 20.1684 50.4545 20.4694 50.3575 20.6701Z" fill="#050340"/>
<path d="M59.2819 32.6104H61.0279L64.1318 41.1393L67.2358 32.6104H68.9818V42.7447H67.7208V34.3161L64.6168 42.7447H63.4528L60.3489 34.3161V42.7447H59.0879V32.6104H59.2819Z" fill="#050340"/>
<path d="M74.0248 42.9454C73.4428 42.9454 72.9579 42.8451 72.5699 42.6444C72.1819 42.4437 71.7939 42.1427 71.5029 41.8417C71.2119 41.5407 71.0179 41.039 70.8239 40.6376C70.6299 40.1359 70.6299 39.6342 70.6299 39.1325C70.6299 38.6308 70.7269 38.1291 70.8239 37.6274C71.0179 37.1257 71.2119 36.7243 71.5029 36.4233C71.7939 36.1223 72.1819 35.8213 72.5699 35.6206C72.9579 35.4199 73.5398 35.3196 74.0248 35.3196C74.6068 35.3196 75.0918 35.4199 75.4798 35.6206C75.8678 35.8213 76.2558 36.1223 76.5468 36.4233C76.8378 36.7243 77.0318 37.226 77.2258 37.6274C77.4198 38.1291 77.4198 38.6308 77.4198 39.1325C77.4198 39.6342 77.3228 40.1359 77.2258 40.6376C77.0318 41.1393 76.8378 41.5407 76.5468 41.8417C76.2558 42.1427 75.8678 42.4437 75.4798 42.6444C74.9948 42.8451 74.5098 42.9454 74.0248 42.9454ZM74.0248 41.942C74.3158 41.942 74.6068 41.8417 74.8978 41.7413C75.1888 41.641 75.3828 41.4403 75.5768 41.2396C75.7708 41.039 75.9648 40.7379 76.0618 40.3366C76.1588 39.9352 76.1588 39.5339 76.1588 39.1325C76.1588 38.7311 76.0618 38.3298 75.9648 37.9284C75.8678 37.6274 75.6738 37.3264 75.4798 37.0254C75.2858 36.8247 74.9948 36.624 74.8008 36.5237C74.5098 36.4233 74.2188 36.323 73.9278 36.323C73.6368 36.323 73.3458 36.4233 73.0549 36.5237C72.7639 36.624 72.5699 36.8247 72.3759 37.0254C72.1819 37.226 71.9879 37.5271 71.8909 37.9284C71.7939 38.2294 71.6969 38.6308 71.6969 39.1325C71.6969 39.5339 71.7939 39.9352 71.8909 40.3366C71.9879 40.6376 72.1819 40.9386 72.3759 41.2396C72.5699 41.4403 72.8609 41.641 73.0549 41.7413C73.3458 41.8417 73.6368 41.942 74.0248 41.942Z" fill="#050340"/>
<path d="M81.5913 42.9454C81.0093 42.9454 80.5243 42.8451 80.1363 42.6444C79.7483 42.4437 79.3603 42.243 79.0693 41.8417C78.7783 41.5407 78.5843 41.1393 78.3903 40.6376C78.2933 40.1359 78.1963 39.6342 78.1963 39.1325C78.1963 38.6308 78.2933 38.0288 78.3903 37.6274C78.4873 37.1257 78.7783 36.7243 78.9723 36.323C79.2633 35.9216 79.5543 35.7209 80.0393 35.5203C80.4273 35.3196 80.9123 35.2192 81.4943 35.2192C81.8822 35.2192 82.2702 35.2192 82.6582 35.3196C83.0462 35.4199 83.3372 35.6206 83.6282 35.8213C83.9192 36.022 84.1132 36.323 84.3072 36.624C84.5012 36.925 84.5982 37.3264 84.5982 37.7277H83.4342C83.3372 37.226 83.1432 36.925 82.8522 36.624C82.5612 36.323 82.1732 36.2226 81.6882 36.2226C81.3003 36.2226 80.9123 36.323 80.6213 36.4233C80.3303 36.624 80.1363 36.8247 79.9423 37.0254C79.7483 37.3264 79.6513 37.6274 79.5543 37.9284C79.4573 38.2294 79.4573 38.6308 79.4573 39.0322C79.4573 39.3332 79.4573 39.7345 79.5543 40.0356C79.6513 40.3366 79.7483 40.6376 79.9423 40.9386C80.1363 41.2396 80.3303 41.4403 80.6213 41.5407C80.9123 41.7413 81.2033 41.7413 81.5913 41.7413C82.1732 41.7413 82.6582 41.5407 82.9492 41.2396C83.2402 40.9386 83.4342 40.4369 83.5312 39.9352H84.6952C84.5982 40.8383 84.2102 41.5407 83.7252 42.0424C83.2402 42.7447 82.5612 42.9454 81.5913 42.9454Z" fill="#050340"/>
<path d="M85.9561 35.4197H87.12V38.9316L90.418 35.4197H91.97L88.769 38.6306L92.261 42.8448H90.806L87.799 39.3329L87.12 40.0353V42.8448H85.9561V35.4197Z" fill="#050340"/>
<path d="M96.1414 42.9454C95.5594 42.9454 95.0744 42.8451 94.6864 42.6444C94.2984 42.4437 93.9104 42.1427 93.6194 41.8417C93.3284 41.5407 93.1344 41.039 92.9404 40.6376C92.7464 40.1359 92.6494 39.6342 92.6494 39.1325C92.6494 38.6308 92.7464 38.1291 92.8434 37.6274C93.0374 37.1257 93.2314 36.7243 93.5224 36.4233C93.8134 36.1223 94.2014 35.8213 94.5894 35.6206C94.9774 35.4199 95.5594 35.3196 96.0444 35.3196C96.6264 35.3196 97.1114 35.4199 97.4993 35.6206C97.8873 35.8213 98.2753 36.1223 98.5663 36.4233C98.8573 36.7243 99.0513 37.226 99.2453 37.6274C99.4393 38.1291 99.4393 38.6308 99.4393 39.1325C99.4393 39.6342 99.3423 40.1359 99.2453 40.6376C99.0513 41.1393 98.8573 41.5407 98.5663 41.8417C98.2753 42.1427 97.8873 42.4437 97.4993 42.6444C97.2084 42.8451 96.7234 42.9454 96.1414 42.9454ZM96.1414 41.942C96.4324 41.942 96.7234 41.8417 97.0144 41.7413C97.3054 41.641 97.4993 41.4403 97.6933 41.2396C97.8873 41.039 98.0813 40.7379 98.1783 40.3366C98.2753 40.0356 98.3723 39.6342 98.3723 39.1325C98.3723 38.7311 98.2753 38.3298 98.1783 37.9284C98.0813 37.6274 97.8873 37.3264 97.6933 37.0254C97.4993 36.8247 97.2084 36.624 97.0144 36.5237C96.7234 36.4233 96.4324 36.323 96.1414 36.323C95.8504 36.323 95.5594 36.4233 95.2684 36.5237C94.9774 36.624 94.7834 36.8247 94.5894 37.0254C94.3954 37.226 94.2014 37.5271 94.1044 37.9284C94.0074 38.2294 93.9104 38.6308 93.9104 39.1325C93.9104 39.5339 94.0074 39.9352 94.1044 40.3366C94.2014 40.6376 94.3954 40.9386 94.5894 41.2396C94.7834 41.4403 95.0744 41.641 95.2684 41.7413C95.5594 41.8417 95.8504 41.942 96.1414 41.942Z" fill="#050340"/>
<path d="M100.797 35.4197H104.095C104.386 35.4197 104.677 35.4197 104.968 35.52C105.259 35.52 105.55 35.6204 105.744 35.821C105.938 35.9214 106.132 36.1221 106.326 36.3227C106.423 36.5234 106.52 36.8244 106.52 37.2258C106.52 37.6272 106.423 37.9282 106.229 38.2292C106.035 38.4299 105.744 38.7309 105.453 38.8312C105.841 38.9316 106.229 39.1323 106.423 39.4333C106.714 39.7343 106.811 40.1357 106.811 40.6374C106.811 40.9384 106.714 41.2394 106.617 41.5404C106.52 41.8414 106.326 42.0421 106.132 42.2428C105.938 42.4435 105.744 42.5438 105.453 42.6442C105.162 42.7445 104.871 42.8448 104.58 42.8448H100.7V35.4197H100.797ZM103.998 38.4299C104.483 38.4299 104.871 38.3295 105.065 38.1289C105.259 37.9282 105.356 37.7275 105.356 37.3261C105.356 37.0251 105.259 36.8244 105.065 36.6238C104.871 36.4231 104.483 36.4231 103.998 36.4231H101.961V38.4299H103.998ZM104.483 41.7411C104.871 41.7411 105.162 41.6408 105.356 41.4401C105.55 41.2394 105.647 40.9384 105.647 40.537C105.647 40.236 105.55 39.935 105.356 39.7343C105.162 39.5336 104.774 39.4333 104.289 39.4333H101.961V41.7411H104.483Z" fill="#050340"/>
<path d="M111.079 42.9454C110.497 42.9454 110.012 42.8451 109.624 42.6444C109.236 42.4437 108.848 42.243 108.557 41.8417C108.266 41.5407 108.072 41.1393 107.878 40.6376C107.781 40.1359 107.684 39.6342 107.684 39.1325C107.684 38.6308 107.781 38.0288 107.878 37.6274C107.975 37.1257 108.266 36.7243 108.46 36.323C108.751 35.9216 109.042 35.7209 109.527 35.5203C109.915 35.3196 110.4 35.2192 110.982 35.2192C111.37 35.2192 111.758 35.2192 112.146 35.3196C112.534 35.4199 112.825 35.6206 113.116 35.8213C113.407 36.022 113.601 36.323 113.795 36.624C113.989 36.925 114.086 37.3264 114.086 37.7277H112.922C112.825 37.226 112.631 36.925 112.34 36.624C112.049 36.323 111.661 36.2226 111.176 36.2226C110.788 36.2226 110.4 36.323 110.109 36.4233C109.818 36.624 109.624 36.8247 109.43 37.0254C109.236 37.3264 109.139 37.6274 109.042 37.9284C108.945 38.2294 108.945 38.6308 108.945 39.0322C108.945 39.3332 108.945 39.7345 109.042 40.0356C109.139 40.3366 109.236 40.6376 109.43 40.9386C109.624 41.2396 109.818 41.4403 110.109 41.5407C110.4 41.7413 110.691 41.7413 111.079 41.7413C111.661 41.7413 112.146 41.5407 112.437 41.2396C112.728 40.9386 112.922 40.4369 113.019 39.9352H114.183C114.086 40.8383 113.698 41.5407 113.213 42.0424C112.728 42.7447 111.952 42.9454 111.079 42.9454Z" fill="#050340"/>
<path d="M115.347 35.4197H116.511V38.9316L119.809 35.4197H121.361L118.16 38.6306L121.652 42.8448H120.197L117.19 39.3329L116.511 40.0353V42.8448H115.347V35.4197Z" fill="#050340"/>
<path d="M124.465 42.9452C124.174 42.9452 123.883 42.9452 123.592 42.8448C123.301 42.7445 123.01 42.6442 122.816 42.4435C122.622 42.2428 122.428 42.0421 122.331 41.8414C122.234 41.6408 122.137 41.2394 122.137 40.9384C122.137 40.537 122.234 40.1357 122.331 39.935C122.428 39.634 122.622 39.4333 122.913 39.3329C123.107 39.1323 123.398 39.0319 123.689 38.9316C123.98 38.8312 124.271 38.7309 124.562 38.7309C124.853 38.6306 125.144 38.6306 125.435 38.6306C125.726 38.6306 126.017 38.5302 126.211 38.5302C126.405 38.5302 126.599 38.3295 126.696 38.2292C126.793 38.1289 126.89 37.9282 126.89 37.7275C126.89 37.4265 126.793 37.2258 126.793 37.1255C126.696 36.9248 126.599 36.8244 126.405 36.7241C126.211 36.6238 126.114 36.6238 125.92 36.5234C125.726 36.5234 125.532 36.5234 125.338 36.5234C124.853 36.5234 124.465 36.6238 124.077 36.8244C123.786 37.0251 123.592 37.4265 123.495 37.9282H122.331C122.331 37.4265 122.428 37.1255 122.622 36.7241C122.816 36.4231 123.01 36.1221 123.301 35.9214C123.592 35.7207 123.883 35.6204 124.271 35.52C124.659 35.4197 125.047 35.4197 125.435 35.4197C125.726 35.4197 126.114 35.4197 126.405 35.52C126.696 35.52 126.987 35.6204 127.278 35.821C127.569 35.9214 127.763 36.2224 127.86 36.4231C128.054 36.7241 128.054 37.0251 128.054 37.4265V41.2394C128.054 41.5404 128.054 41.7411 128.151 41.8414C128.151 41.9418 128.248 42.0421 128.442 42.0421C128.539 42.0421 128.636 42.0421 128.83 41.9418V42.8448C128.636 42.9452 128.345 43.0455 127.957 43.0455C127.666 43.0455 127.375 42.9452 127.278 42.7445C127.084 42.5438 126.987 42.2428 126.987 41.8414C126.696 42.2428 126.308 42.5438 125.823 42.7445C125.435 42.8448 124.95 42.9452 124.465 42.9452ZM124.756 41.9418C125.144 41.9418 125.435 41.8414 125.726 41.7411C126.017 41.6408 126.211 41.5404 126.405 41.3397C126.599 41.1391 126.696 41.0387 126.793 40.838C126.89 40.6374 126.89 40.4367 126.89 40.3363V39.1323C126.696 39.2326 126.502 39.3329 126.308 39.4333C126.114 39.4333 125.823 39.5336 125.532 39.5336C125.241 39.5336 125.047 39.634 124.756 39.634C124.465 39.634 124.271 39.7343 124.077 39.8346C123.883 39.935 123.689 40.0353 123.592 40.236C123.495 40.4367 123.398 40.6374 123.398 40.9384C123.398 41.1391 123.398 41.3397 123.495 41.4401C123.592 41.5404 123.689 41.6408 123.786 41.7411C123.883 41.8414 124.077 41.8414 124.174 41.9418C124.368 41.9418 124.562 41.9418 124.756 41.9418Z" fill="#050340"/>
<path d="M131.255 39.9352C130.77 39.8349 130.382 39.6342 129.994 39.2328C129.703 38.8315 129.509 38.3298 129.509 37.7277C129.509 37.0254 129.703 36.5237 130.091 36.1223C130.479 35.7209 131.061 35.5203 131.74 35.5203H135.329V42.8451H134.165V40.0356H132.613L130.479 42.8451H128.927L131.255 39.9352ZM134.165 38.9318V36.5237H132.128C131.643 36.5237 131.255 36.624 131.061 36.8247C130.867 37.0254 130.77 37.3264 130.77 37.7277C130.77 38.1291 130.867 38.4301 131.061 38.6308C131.255 38.8315 131.643 38.9318 132.128 38.9318H134.165Z" fill="#050340"/>
<path d="M140.663 35.4197H141.827V41.7411H144.446V35.4197H145.61V41.7411H148.229V35.4197H149.393V42.7445H140.566V35.4197H140.663Z" fill="#050340"/>
<path d="M151.14 35.4197H152.304V38.9316L155.602 35.4197H157.154L153.953 38.6306L157.445 42.8448H155.99L152.983 39.3329L152.304 40.0353V42.8448H151.14V35.4197Z" fill="#050340"/>
<path d="M161.325 42.9454C160.743 42.9454 160.258 42.8451 159.87 42.6444C159.482 42.4437 159.094 42.1427 158.803 41.8417C158.512 41.5407 158.318 41.039 158.124 40.6376C157.93 40.1359 157.93 39.6342 157.93 39.1325C157.93 38.6308 158.027 38.1291 158.124 37.6274C158.318 37.1257 158.512 36.7243 158.803 36.4233C159.094 36.1223 159.482 35.8213 159.87 35.6206C160.258 35.4199 160.84 35.3196 161.325 35.3196C161.907 35.3196 162.392 35.4199 162.78 35.6206C163.168 35.8213 163.556 36.1223 163.847 36.4233C164.138 36.7243 164.332 37.226 164.526 37.6274C164.72 38.1291 164.72 38.6308 164.72 39.1325C164.72 39.6342 164.623 40.1359 164.526 40.6376C164.332 41.1393 164.138 41.5407 163.847 41.8417C163.556 42.1427 163.168 42.4437 162.78 42.6444C162.392 42.8451 161.907 42.9454 161.325 42.9454ZM161.325 41.942C161.616 41.942 161.907 41.8417 162.198 41.7413C162.489 41.641 162.683 41.4403 162.877 41.2396C163.071 41.039 163.265 40.7379 163.362 40.3366C163.459 40.0356 163.556 39.6342 163.556 39.1325C163.556 38.7311 163.459 38.3298 163.362 37.9284C163.265 37.6274 163.071 37.3264 162.877 37.0254C162.683 36.8247 162.392 36.624 162.198 36.5237C161.907 36.4233 161.616 36.323 161.325 36.323C161.034 36.323 160.743 36.4233 160.452 36.5237C160.161 36.624 159.967 36.8247 159.773 37.0254C159.579 37.226 159.385 37.5271 159.288 37.9284C159.191 38.2294 159.094 38.6308 159.094 39.1325C159.094 39.5339 159.191 39.9352 159.288 40.3366C159.385 40.6376 159.579 40.9386 159.773 41.2396C159.967 41.4403 160.258 41.641 160.452 41.7413C160.743 41.8417 161.034 41.942 161.325 41.942Z" fill="#050340"/>
<path d="M165.981 42.9452C165.884 42.9452 165.69 42.9452 165.593 42.9452C165.496 42.9452 165.399 42.9452 165.302 42.8449V41.7411C165.399 41.7411 165.496 41.7411 165.593 41.8414C165.69 41.8414 165.787 41.8414 165.787 41.8414C166.078 41.8414 166.369 41.7411 166.466 41.4401C166.66 41.2394 166.757 40.838 166.854 40.3363C166.951 39.8346 166.951 39.1323 166.951 38.3295C166.951 37.5268 166.951 36.5234 167.048 35.4197H172.092V42.7445H170.928V36.4231H168.212C168.212 37.3261 168.115 38.1289 168.115 38.8312C168.115 39.634 168.018 40.236 167.921 40.838C167.824 41.4401 167.63 41.8414 167.339 42.2428C166.854 42.7445 166.466 42.9452 165.981 42.9452Z" fill="#050340"/>
<path d="M175.583 42.9452C175.292 42.9452 175.001 42.9452 174.71 42.8448C174.419 42.7445 174.128 42.6442 173.934 42.4435C173.74 42.2428 173.546 42.0421 173.449 41.8414C173.352 41.5404 173.255 41.2394 173.255 40.9384C173.255 40.537 173.352 40.1357 173.449 39.935C173.546 39.634 173.74 39.4333 174.031 39.3329C174.225 39.1323 174.516 39.0319 174.807 38.9316C175.098 38.8312 175.389 38.7309 175.68 38.7309C175.971 38.6306 176.262 38.6306 176.553 38.6306C176.844 38.6306 177.135 38.5302 177.329 38.5302C177.523 38.5302 177.717 38.3295 177.814 38.2292C177.911 38.1289 178.008 37.9282 178.008 37.7275C178.008 37.4265 177.911 37.2258 177.911 37.1255C177.814 36.9248 177.717 36.8244 177.523 36.7241C177.329 36.6238 177.232 36.6238 177.038 36.5234C176.844 36.5234 176.65 36.5234 176.456 36.5234C175.971 36.5234 175.583 36.6238 175.195 36.8244C174.904 37.0251 174.71 37.4265 174.613 37.9282H173.449C173.449 37.4265 173.546 37.1255 173.74 36.7241C173.934 36.4231 174.128 36.1221 174.419 35.9214C174.71 35.7207 175.001 35.6204 175.389 35.52C175.777 35.4197 176.165 35.4197 176.553 35.4197C176.844 35.4197 177.232 35.4197 177.523 35.52C177.814 35.52 178.105 35.6204 178.396 35.821C178.687 35.9214 178.881 36.2224 178.978 36.4231C179.172 36.7241 179.172 37.0251 179.172 37.4265V41.2394C179.172 41.5404 179.172 41.7411 179.269 41.8414C179.269 41.9418 179.366 42.0421 179.56 42.0421C179.657 42.0421 179.754 42.0421 179.948 41.9418V42.8448C179.754 42.9452 179.463 43.0455 179.075 43.0455C178.784 43.0455 178.493 42.9452 178.396 42.7445C178.202 42.5438 178.105 42.2428 178.105 41.8414C177.814 42.2428 177.426 42.5438 176.941 42.7445C176.553 42.8448 176.068 42.9452 175.583 42.9452ZM175.874 41.9418C176.262 41.9418 176.553 41.8414 176.844 41.7411C177.135 41.6408 177.329 41.5404 177.523 41.3397C177.717 41.1391 177.814 41.0387 177.911 40.838C178.008 40.6374 178.008 40.4367 178.008 40.3363V39.1323C177.814 39.2326 177.62 39.3329 177.426 39.4333C177.232 39.4333 176.941 39.5336 176.65 39.5336C176.359 39.5336 176.165 39.634 175.874 39.634C175.583 39.634 175.389 39.7343 175.195 39.8346C175.001 39.935 174.807 40.0353 174.71 40.236C174.613 40.4367 174.516 40.6374 174.516 40.9384C174.516 41.1391 174.516 41.3397 174.613 41.4401C174.71 41.5404 174.807 41.6408 174.904 41.7411C175.001 41.8414 175.195 41.8414 175.292 41.9418C175.486 41.9418 175.68 41.9418 175.874 41.9418Z" fill="#050340"/>
<path d="M59.7665 58.9998C59.6695 58.9998 59.4755 58.9998 59.3785 58.9998C59.2815 58.9998 59.0875 58.8995 58.9905 58.8995V57.7957C59.0875 57.7957 59.1845 57.8961 59.2815 57.8961C59.3785 57.8961 59.4755 57.9964 59.6695 57.9964C59.8635 57.9964 60.0575 57.8961 60.2515 57.7957C60.4455 57.6954 60.5425 57.4947 60.6395 57.294L61.1245 56.09L58.3115 48.7651H59.6695L61.7065 54.7855L63.7435 48.7651H65.0044L61.9005 57.0934C61.8035 57.4947 61.6095 57.7957 61.5125 57.9964C61.4155 58.1971 61.2215 58.3978 61.0275 58.5985C60.8335 58.7991 60.6395 58.8995 60.4455 58.8995C60.2515 58.8995 60.0575 58.9998 59.7665 58.9998Z" fill="#050340"/>
<path d="M65.7803 48.6648H71.6002V55.9897H70.4362V49.6682H66.9443V55.9897H65.7803V48.6648Z" fill="#050340"/>
<path d="M73.249 48.6648H74.413V49.6682C74.607 49.2668 74.898 48.9658 75.286 48.7651C75.674 48.5645 76.159 48.4641 76.644 48.4641C77.226 48.4641 77.711 48.5645 78.099 48.7651C78.487 48.9658 78.875 49.2668 79.1659 49.5679C79.4569 49.9692 79.6509 50.3706 79.7479 50.7719C79.8449 51.2736 79.9419 51.7753 79.9419 52.277C79.9419 52.7787 79.8449 53.2804 79.7479 53.7821C79.6509 54.2838 79.4569 54.6852 79.1659 54.9862C78.875 55.2872 78.584 55.5882 78.099 55.7889C77.711 55.9896 77.226 56.09 76.644 56.09C76.45 56.09 76.256 56.09 76.062 55.9896C75.868 55.9896 75.674 55.8893 75.383 55.7889C75.189 55.6886 74.995 55.5883 74.801 55.4879C74.607 55.3876 74.413 55.1869 74.316 54.9862V58.7991H73.249V48.6648ZM76.644 55.1869C77.032 55.1869 77.42 55.0866 77.614 54.9862C77.905 54.7855 78.099 54.5849 78.293 54.3842C78.487 54.0832 78.584 53.7821 78.681 53.4811C78.778 53.1801 78.778 52.7787 78.778 52.3774C78.778 52.0764 78.778 51.675 78.681 51.374C78.584 51.073 78.487 50.7719 78.293 50.4709C78.099 50.1699 77.905 49.9692 77.614 49.8689C77.323 49.7685 77.032 49.6682 76.644 49.6682C76.256 49.6682 75.868 49.7685 75.674 49.8689C75.383 50.0696 75.189 50.2702 74.995 50.4709C74.801 50.6716 74.704 51.073 74.607 51.374C74.51 51.675 74.51 52.0764 74.51 52.3774C74.51 52.7787 74.51 53.0798 74.607 53.3808C74.704 53.6818 74.801 53.9828 74.995 54.2838C75.189 54.5848 75.383 54.7855 75.674 54.8859C75.868 55.0866 76.256 55.1869 76.644 55.1869Z" fill="#050340"/>
<path d="M83.2401 56.1903C82.9491 56.1903 82.6581 56.1903 82.3671 56.09C82.0761 55.9896 81.7851 55.8893 81.5911 55.6886C81.3971 55.4879 81.2031 55.2873 81.1061 55.0866C81.0091 54.8859 80.9121 54.4845 80.9121 54.1835C80.9121 53.7821 81.0091 53.3808 81.1061 53.1801C81.2031 52.8791 81.3971 52.6784 81.6881 52.5781C81.8821 52.3774 82.1731 52.277 82.4641 52.1767C82.7551 52.0764 83.0461 51.976 83.3371 51.976C83.6281 51.8757 83.9191 51.8757 84.2101 51.8757C84.5011 51.8757 84.7921 51.7753 84.9861 51.7753C85.1801 51.7753 85.3741 51.5747 85.4711 51.4743C85.5681 51.374 85.6651 51.1733 85.6651 50.9726C85.6651 50.6716 85.5681 50.4709 85.5681 50.3706C85.4711 50.1699 85.3741 50.0696 85.1801 49.9692C84.9861 49.8689 84.8891 49.8689 84.6951 49.7685C84.5011 49.7685 84.3071 49.7685 84.1131 49.7685C83.6281 49.7685 83.2401 49.8689 82.8521 50.0696C82.5611 50.2702 82.3671 50.6716 82.2701 51.1733H81.1061C81.1061 50.6716 81.2031 50.3706 81.3971 49.9692C81.5911 49.6682 81.7851 49.3672 82.0761 49.1665C82.3671 48.9658 82.6581 48.8655 83.0461 48.7651C83.4341 48.6648 83.8221 48.6648 84.2101 48.6648C84.5011 48.6648 84.8891 48.6648 85.1801 48.7651C85.4711 48.7651 85.7621 48.8655 86.0531 49.0662C86.3441 49.1665 86.5381 49.4675 86.6351 49.6682C86.8291 49.9692 86.8291 50.2702 86.8291 50.6716V54.4845C86.8291 54.7856 86.8291 54.9862 86.9261 55.0866C86.9261 55.1869 87.0231 55.2873 87.2171 55.2873C87.3141 55.2873 87.4111 55.2873 87.6051 55.1869V56.09C87.4111 56.1903 87.1201 56.2907 86.7321 56.2907C86.4411 56.2907 86.1501 56.1903 86.0531 55.9896C85.8591 55.789 85.7621 55.4879 85.7621 55.0866C85.4711 55.4879 85.0831 55.789 84.5981 55.9896C84.2101 56.09 83.7251 56.1903 83.2401 56.1903ZM83.5311 55.1869C83.9191 55.1869 84.2101 55.0866 84.5011 54.9862C84.7921 54.8859 84.9861 54.7856 85.1801 54.5849C85.3741 54.3842 85.4711 54.2839 85.5681 54.0832C85.6651 53.8825 85.6651 53.6818 85.6651 53.5815V52.3774C85.4711 52.4777 85.2771 52.5781 85.0831 52.6784C84.8891 52.6784 84.5981 52.7787 84.3071 52.7787C84.0161 52.7787 83.8221 52.8791 83.5311 52.8791C83.2401 52.8791 83.0461 52.9794 82.8521 53.0798C82.6581 53.1801 82.4641 53.2804 82.3671 53.4811C82.2701 53.6818 82.1731 53.8825 82.1731 54.1835C82.1731 54.3842 82.1731 54.5849 82.2701 54.6852C82.3671 54.7856 82.4641 54.8859 82.5611 54.9862C82.6581 55.0866 82.8521 55.0866 82.9491 55.1869C83.1431 55.0866 83.3371 55.1869 83.5311 55.1869Z" fill="#050340"/>
<path d="M88.5755 48.6648H91.8735C92.1645 48.6648 92.4555 48.6648 92.7465 48.7651C93.0375 48.7651 93.3285 48.8655 93.5225 49.0662C93.7165 49.1665 93.9105 49.3672 94.1045 49.5679C94.2015 49.7685 94.2984 50.0696 94.2984 50.4709C94.2984 50.8723 94.2015 51.1733 94.0075 51.4743C93.8135 51.675 93.5225 51.976 93.2315 52.0764C93.6195 52.1767 94.0075 52.3774 94.2014 52.6784C94.4924 52.9794 94.5894 53.3808 94.5894 53.8825C94.5894 54.1835 94.4925 54.4845 94.3955 54.7856C94.2985 55.0866 94.1045 55.2873 93.9105 55.4879C93.7165 55.6886 93.5225 55.789 93.2315 55.8893C92.9405 55.9896 92.6495 56.09 92.3585 56.09H88.4785V48.6648H88.5755ZM91.6795 51.675C92.1645 51.675 92.5525 51.5747 92.7465 51.374C92.9405 51.1733 93.0375 50.9726 93.0375 50.5713C93.0375 50.2702 92.9405 50.0696 92.7465 49.8689C92.5525 49.6682 92.1645 49.6682 91.6795 49.6682H89.6425V51.675H91.6795ZM92.1645 54.9862C92.5525 54.9862 92.8435 54.8859 93.0375 54.6852C93.2315 54.4845 93.3285 54.1835 93.3285 53.7822C93.3285 53.4811 93.2315 53.1801 93.0375 52.9794C92.8435 52.7787 92.4555 52.6784 91.9705 52.6784H89.6425V54.9862H92.1645Z" fill="#050340"/>
<path d="M95.7532 56.09C95.6562 56.09 95.4622 56.09 95.3652 56.09C95.2682 56.09 95.1712 56.09 95.0742 55.9896V54.8859C95.1712 54.8859 95.2682 54.8859 95.3652 54.9862C95.4622 54.9862 95.5592 54.9862 95.5592 54.9862C95.8502 54.9862 96.1412 54.8859 96.2382 54.5849C96.4322 54.3842 96.5292 53.9828 96.6262 53.4811C96.7232 52.9794 96.7232 52.277 96.7232 51.4743C96.7232 50.6716 96.7232 49.6682 96.8202 48.5645H101.864V55.8893H100.7V49.5679H97.9842C97.9842 50.4709 97.8872 51.2736 97.8872 51.976C97.8872 52.7787 97.7902 53.3808 97.6932 53.9828C97.5962 54.5849 97.4022 54.9862 97.1112 55.3876C96.7232 55.9896 96.3352 56.09 95.7532 56.09Z" fill="#050340"/>
<path d="M106.52 56.1903C105.938 56.1903 105.453 56.09 105.065 55.8893C104.677 55.6886 104.289 55.3876 103.998 55.0866C103.707 54.7855 103.513 54.3842 103.319 53.8825C103.222 53.3808 103.125 52.8791 103.125 52.3774C103.125 51.8757 103.222 51.2736 103.416 50.8723C103.61 50.3706 103.804 49.9692 104.095 49.6682C104.386 49.3672 104.774 49.0662 105.162 48.8655C105.55 48.6648 106.035 48.5645 106.52 48.5645C107.199 48.5645 107.684 48.6648 108.072 48.9658C108.46 49.2668 108.848 49.5679 109.042 49.9692C109.333 50.3706 109.43 50.8723 109.527 51.374C109.624 51.8757 109.624 52.3774 109.624 52.7787H104.289C104.289 53.0798 104.289 53.3808 104.386 53.6818C104.483 53.9828 104.58 54.1835 104.774 54.4845C104.968 54.6852 105.162 54.8859 105.453 54.9862C105.744 55.0866 106.035 55.1869 106.423 55.1869C106.908 55.1869 107.296 55.0866 107.684 54.7855C107.975 54.5849 108.169 54.1835 108.266 53.6818H109.43C109.236 54.4845 108.945 55.1869 108.363 55.5883C107.975 55.9896 107.296 56.1903 106.52 56.1903ZM108.363 51.675C108.363 51.374 108.266 51.073 108.169 50.8723C108.072 50.5713 107.878 50.3706 107.781 50.1699C107.587 49.9692 107.393 49.8689 107.102 49.7685C106.811 49.6682 106.617 49.5679 106.326 49.5679C106.035 49.5679 105.744 49.6682 105.55 49.7685C105.259 49.8689 105.065 50.0696 104.968 50.1699C104.774 50.3706 104.677 50.5713 104.58 50.8723C104.483 51.1733 104.386 51.374 104.386 51.675H108.363Z" fill="#050340"/>
<path d="M110.691 48.6648H111.855V51.5747H115.444V48.6648H116.608V55.9897H115.444V52.5781H111.855V55.9897H110.691V48.6648Z" fill="#050340"/>
<path d="M118.257 48.6648H119.421V54.6852L122.816 48.6648H124.271V55.9897H123.107V49.9692L119.712 55.9897H118.257V48.6648Z" fill="#050340"/>
<path d="M127.471 53.1801C126.987 53.0798 126.599 52.8791 126.211 52.4777C125.92 52.0764 125.726 51.5747 125.726 50.9726C125.726 50.2702 125.92 49.7685 126.308 49.3672C126.696 48.9658 127.277 48.7651 127.956 48.7651H131.545V56.09H130.381V53.1801H128.829L126.696 55.9896H125.144L127.471 53.1801ZM130.381 52.1767V49.7685H128.344C127.859 49.7685 127.471 49.8689 127.277 50.0696C127.084 50.2702 126.987 50.5713 126.987 50.9726C126.987 51.374 127.084 51.675 127.277 51.8757C127.471 52.0764 127.859 52.1767 128.344 52.1767H130.381Z" fill="#050340"/>
</svg>
